<?xml version="1.0" encoding="utf-8"?>
<!-- Generator: Adobe Illustrator 23.0.3, SVG Export Plug-In . SVG Version: 6.00 Build 0)  -->
<svg version="1.1" xmlns="http://www.w3.org/2000/svg" xmlns:xlink="http://www.w3.org/1999/xlink" x="0px" y="0px"
	 viewBox="0 0 300 298" style="enable-background:new 0 0 300 298;" xml:space="preserve">
<style type="text/css">
	.st0{fill:#FFFFFF;}
	.st1{fill:#0079C1;}
	.st2{fill:#FAB400;}
	.st3{fill:#1C2F76;}
	.st4{fill:none;}
	.st5{fill:#231F20;}
	.st6{fill:#FF5F00;}
	.st7{fill:#EB001B;}
	.st8{fill:#F79E1B;}
	.st9{fill:#7673C0;}
	.st10{fill:#00A1DF;}
	.st11{fill:#C3C3C0;}
</style>
<g id="Layer_1">
	<g>
		<path class="st1" d="M287.29,210.55h-97.66l-6.2-8.05v8.05h-21.16V197.7c-2.68,1-5.71,1.59-9.11,1.59h-3.45v11.26h-31.37l-4.8-6.7
			l-4.65,6.7H57.85v-49.23h51.23l4.76,6.6l4.7-6.6h179.98V0.65H1.32v120.7l10.31-24.02h20.52l5.3,12.33V97.34h25.07l3.3,9.76
			l3.3-9.76h108.92v4.58c4.08-3.14,9.37-4.58,15.16-4.58h33.82l5.3,12.33V97.34h20.26l5.9,9.16v-9.16h21.72v49.23h-21.37l-5.55-8.61
			v8.61h-30.32l-2.85-7.31h-6.41l-2.85,7.31h-18.21c-4.81,0-10.26-0.98-14.61-4.25v4.25h-30.77l-6.2-8.05v8.05H28.09l-2.85-7.31
			h-6.4l-2.85,7.31H1.32v151.28h297.19v-90.51C295.49,209.33,291.64,210.55,287.29,210.55L287.29,210.55z"/>
		<path class="st1" d="M287.29,195.59h-18.11v7.86h18.06c7.6,0,12.11-4.61,12.11-11.36c0-6.35-3.95-10.05-10.91-10.05h-8.31
			c-1.85,0-3.15-1.15-3.15-2.9c0-1.75,1.3-2.85,3.15-2.85h15.11l3.45-7.86h-18.46c-7.61,0-12.16,4.65-12.16,11.01
			c0,6.6,4.3,10.41,10.96,10.41h8.26c1.85,0,3.2,1.15,3.2,2.9C290.5,194.49,289.14,195.59,287.29,195.59 M255.22,195.59h-18.11v7.86
			h18.06c7.61,0,12.11-4.61,12.11-11.36c0-6.35-3.95-10.05-10.91-10.05h-8.3c-1.85,0-3.15-1.15-3.15-2.9c0-1.75,1.3-2.85,3.15-2.85
			h15.11l3.45-7.86h-18.46c-7.6,0-12.16,4.65-12.16,11.01c0,6.6,4.3,10.41,10.96,10.41h8.25c1.85,0,3.2,1.15,3.2,2.9
			C258.42,194.49,257.07,195.59,255.22,195.59 M233.16,176.28v-7.86h-28.52v35.02h28.52v-7.86h-19.61v-5.96h19.16v-7.65h-19.16v-5.7
			H233.16L233.16,176.28z M188.03,176.28c2.7,0,4.1,1.65,4.1,3.6c0,2-1.4,3.55-4.1,3.55h-9.65v-7.15H188.03L188.03,176.28z
			 M178.37,191.04h3.45l10.46,12.41h10.96l-11.36-12.76c5.75-1.25,9.2-5.51,9.2-10.96c0-6.7-4.65-11.31-12.16-11.31h-19.46v35.02
			h8.9V191.04L178.37,191.04z M156.71,180.28c0,2.15-1.4,3.9-4.1,3.9h-9.91v-7.9h9.91C155.31,176.28,156.71,178.08,156.71,180.28
			 M133.8,168.42v35.02h8.9v-11.41h10.51c7.71,0,12.46-5.05,12.46-11.81c0-7.01-4.65-11.81-12.16-11.81H133.8L133.8,168.42z
			 M121.89,203.45h11.16l-14.11-17.66l14.01-17.36h-10.86l-8.26,10.76l-8.26-10.76H94.42l14.01,17.56l-13.96,17.46h10.86l8.26-10.86
			L121.89,203.45L121.89,203.45z M93.77,176.28v-7.86H65.25v35.02h28.52v-7.86H74.16v-5.96h19.16v-7.65H74.16v-5.7H93.77
			L93.77,176.28z"/>
		<path class="st1" d="M261.98,139.46h10.81v-35.02h-8.85v21.72l-13.96-21.72h-11.26v35.02h8.85v-22.51L261.98,139.46L261.98,139.46
			z M212,124.7l4.85-12.01l4.9,12.01H212L212,124.7z M227.76,139.46h10.01l-14.96-35.02h-11.56l-15.01,35.02h9.8l2.9-7.15h15.91
			L227.76,139.46L227.76,139.46z M191.74,139.46h0.7l3.65-7.86h-2.85c-5.6,0-8.9-3.4-8.9-9.41v-0.5c0-5.26,2.95-9.16,8.75-9.16h9.41
			v-8.11h-10.11c-11,0-16.91,7.31-16.91,17.26v0.5C175.48,132.96,181.69,139.46,191.74,139.46 M162.27,139.46h8.91v-17.51v-17.51
			h-8.91v17.51V139.46L162.27,139.46z M145.66,112.3c2.7,0,4.1,1.65,4.1,3.6c0,2-1.4,3.55-4.1,3.55h-9.65v-7.16H145.66L145.66,112.3
			z M136.01,127.06h3.45l10.46,12.41h10.96l-11.36-12.76c5.75-1.25,9.21-5.5,9.21-10.96c0-6.7-4.65-11.31-12.16-11.31H127.1v35.02
			h8.91V127.06L136.01,127.06z M122.1,112.3v-7.86H93.58v35.02h28.52v-7.86h-19.61v-5.95h19.16V118h-19.16v-5.7H122.1L122.1,112.3z
			 M61.86,139.46h7.75l9.26-25.92v25.92h8.81v-35.02H73.67l-7.81,22.31l-7.86-22.31H43.85v35.02h8.81v-25.92L61.86,139.46
			L61.86,139.46z M17.13,124.7l4.85-12.01l4.9,12.01H17.13L17.13,124.7z M32.89,139.46H42.9l-14.96-35.02H16.38L1.37,139.46h9.81
			l2.9-7.15h15.91L32.89,139.46L32.89,139.46z"/>
	</g>
</g>
<g id="Layer_2">
</g>
</svg>
