<?xml version="1.0" encoding="utf-8"?>
<!-- Generator: Adobe Illustrator 23.0.3, SVG Export Plug-In . SVG Version: 6.00 Build 0)  -->
<svg version="1.1" xmlns="http://www.w3.org/2000/svg" xmlns:xlink="http://www.w3.org/1999/xlink" x="0px" y="0px"
	 viewBox="0 0 374 291" style="enable-background:new 0 0 374 291;" xml:space="preserve">
<style type="text/css">
	.st0{fill:#FFFFFF;}
	.st1{fill:#0079C1;}
	.st2{fill:#FAB400;}
	.st3{fill:#1C2F76;}
	.st4{fill:none;}
	.st5{fill:#231F20;}
	.st6{fill:#FF5F00;}
	.st7{fill:#EB001B;}
	.st8{fill:#F79E1B;}
	.st9{fill:#7673C0;}
	.st10{fill:#00A1DF;}
	.st11{fill:#C3C3C0;}
</style>
<g id="Layer_1">
	<g>
		<g id="Layer_1-2_1_">
			<rect x="-47.51" y="-47.38" class="st4" width="470.2" height="385.67"/>
			<path class="st5" d="M68.92,289.77v-19.22c0.44-6.28-4.3-11.73-10.59-12.16c-0.48-0.03-0.97-0.04-1.46-0.01
				c-4.31-0.28-8.44,1.8-10.76,5.45c-2.12-3.53-6-5.62-10.12-5.45c-3.58-0.18-7,1.55-8.97,4.55v-3.78h-6.66v30.62h6.73v-16.85
				c-0.54-3.93,2.21-7.54,6.14-8.08c0.45-0.06,0.9-0.08,1.36-0.06c4.42,0,6.66,2.88,6.66,8.07v17.04h6.73v-16.98
				c-0.52-3.95,2.26-7.57,6.21-8.08c0.43-0.06,0.86-0.07,1.29-0.05c4.55,0,6.73,2.88,6.73,8.07v17.04L68.92,289.77z M168.44,259.15
				h-10.95v-9.29h-6.73v9.29h-6.09v6.09h6.21v14.09c0,7.11,2.75,11.34,10.63,11.34c2.94,0.01,5.83-0.81,8.33-2.37l-1.92-5.7
				c-1.79,1.07-3.81,1.66-5.89,1.73c-3.2,0-4.42-2.05-4.42-5.12v-13.96h10.89L168.44,259.15z M225.26,258.38
				c-3.31-0.1-6.41,1.62-8.07,4.48v-3.72h-6.6v30.62h6.66V272.6c0-5.06,2.18-7.88,6.41-7.88c1.42-0.02,2.84,0.24,4.16,0.77
				l2.05-6.41c-1.52-0.54-3.12-0.83-4.74-0.83L225.26,258.38z M139.35,261.58c-3.77-2.24-8.11-3.35-12.49-3.2
				c-7.75,0-12.81,3.72-12.81,9.8c0,5,3.72,8.07,10.57,9.03l3.2,0.45c3.65,0.51,5.38,1.47,5.38,3.2c0,2.37-2.43,3.72-6.98,3.72
				c-3.66,0.11-7.25-1.02-10.19-3.2l-3.2,5.19c3.88,2.71,8.53,4.1,13.26,3.97c8.84,0,13.96-4.16,13.96-9.99s-4.04-8.2-10.7-9.16
				l-3.2-0.45c-2.88-0.38-5.19-0.96-5.19-3.01s2.18-3.59,5.83-3.59c3.37,0.04,6.68,0.94,9.61,2.63L139.35,261.58z M317.79,258.38
				c-3.31-0.1-6.41,1.62-8.07,4.48v-3.72h-6.6v30.62h6.66V272.6c0-5.06,2.18-7.88,6.41-7.88c1.42-0.02,2.84,0.24,4.16,0.77
				l2.05-6.41c-1.52-0.54-3.12-0.83-4.74-0.83L317.79,258.38z M231.95,274.39c-0.31,8.54,6.35,15.71,14.89,16.03
				c0.48,0.02,0.96,0.01,1.44-0.01c4,0.2,7.93-1.1,11.02-3.65l-3.2-5.38c-2.3,1.76-5.11,2.72-8.01,2.75
				c-5.41-0.44-9.45-5.18-9.01-10.59c0.39-4.8,4.2-8.62,9.01-9.01c2.9,0.03,5.7,1,8.01,2.75l3.2-5.38
				c-3.09-2.55-7.02-3.85-11.02-3.65c-8.53-0.48-15.84,6.04-16.32,14.57c-0.03,0.48-0.03,0.96-0.01,1.44V274.39z M294.34,274.39
				v-15.25h-6.66v3.72c-2.3-2.95-5.87-4.62-9.61-4.48c-8.84,0-16.01,7.17-16.01,16.01s7.17,16.01,16.01,16.01
				c3.74,0.14,7.31-1.53,9.61-4.48v3.72h6.66V274.39z M269.55,274.39c0.3-5.1,4.68-9,9.79-8.7c5.1,0.3,9,4.68,8.7,9.79
				c-0.29,4.87-4.31,8.69-9.19,8.71c-5.08,0.06-9.24-4-9.31-9.08C269.53,274.88,269.54,274.63,269.55,274.39z M189.16,258.38
				c-8.84,0.12-15.91,7.39-15.79,16.24s7.39,15.91,16.24,15.79l0,0c4.61,0.24,9.14-1.25,12.72-4.16l-3.2-4.93
				c-2.53,2.03-5.66,3.16-8.9,3.2c-4.58,0.39-8.64-2.93-9.16-7.49h22.74c0-0.83,0-1.67,0-2.56c0-9.61-5.96-16.01-14.54-16.01
				L189.16,258.38z M189.16,264.34c4.19-0.09,7.66,3.24,7.75,7.43c0,0,0,0,0,0H180.9c0.24-4.28,3.85-7.58,8.14-7.43H189.16z
				 M356.07,274.46v-27.61h-6.41v16.01c-2.3-2.95-5.87-4.62-9.61-4.48c-8.84,0-16.01,7.17-16.01,16.01s7.17,16.01,16.01,16.01
				c3.74,0.14,7.31-1.53,9.61-4.48v3.72h6.41V274.46z M367.18,285.32c0.42-0.01,0.83,0.07,1.22,0.22c0.37,0.15,0.7,0.37,0.99,0.64
				c0.28,0.28,0.51,0.6,0.67,0.96c0.33,0.76,0.33,1.61,0,2.37c-0.16,0.36-0.39,0.68-0.67,0.96c-0.29,0.27-0.63,0.49-0.99,0.64
				c-0.38,0.17-0.8,0.26-1.22,0.26c-1.24-0.01-2.36-0.73-2.88-1.86c-0.32-0.76-0.32-1.61,0-2.37c0.16-0.36,0.39-0.68,0.67-0.96
				c0.29-0.27,0.63-0.49,0.99-0.64c0.42-0.17,0.86-0.24,1.31-0.22H367.18z M367.18,290.73c0.32,0,0.64-0.06,0.93-0.19
				c0.28-0.12,0.53-0.3,0.74-0.51c0.83-0.91,0.83-2.3,0-3.2c-0.21-0.22-0.46-0.39-0.74-0.51c-0.29-0.13-0.61-0.19-0.93-0.19
				c-0.32,0-0.64,0.07-0.93,0.19c-0.29,0.12-0.55,0.29-0.77,0.51c-0.83,0.91-0.83,2.3,0,3.2c0.22,0.22,0.48,0.39,0.77,0.51
				c0.32,0.14,0.67,0.2,1.02,0.19L367.18,290.73z M367.37,286.92c0.3-0.01,0.59,0.08,0.83,0.26c0.2,0.16,0.31,0.42,0.29,0.67
				c0.01,0.22-0.07,0.42-0.22,0.58c-0.19,0.17-0.42,0.27-0.67,0.29l0.93,1.06h-0.74l-0.86-1.06h-0.29v1.06h-0.61v-2.82
				L367.37,286.92z M366.67,287.46v0.77h0.7c0.13,0.04,0.26,0.04,0.38,0c0.05-0.09,0.05-0.2,0-0.29c0.05-0.09,0.05-0.2,0-0.29
				c-0.13-0.04-0.26-0.04-0.38,0L366.67,287.46z M331.43,274.46c0.3-5.1,4.68-9,9.79-8.7c5.1,0.3,9,4.68,8.7,9.79
				c-0.29,4.87-4.31,8.69-9.19,8.71c-5.08,0.06-9.24-4-9.31-9.08C331.41,274.94,331.42,274.7,331.43,274.46z M106.49,274.46v-15.31
				h-6.66v3.72c-2.3-2.95-5.87-4.62-9.61-4.48c-8.84,0-16.01,7.17-16.01,16.01s7.17,16.01,16.01,16.01
				c3.74,0.14,7.31-1.53,9.61-4.48v3.72h6.66L106.49,274.46z M81.7,274.46c0.3-5.1,4.68-9,9.79-8.7c5.1,0.3,9,4.68,8.7,9.79
				c-0.29,4.87-4.31,8.69-9.19,8.71c-5.08,0.1-9.27-3.93-9.37-9.01c-0.01-0.26,0-0.53,0.02-0.79H81.7z"/>
			<g id="_Group__3_">
				<rect x="137.14" y="25.81" class="st6" width="100.89" height="181.32"/>
				<path id="_Path__3_" class="st7" d="M143.55,116.49c-0.04-35.39,16.2-68.83,44.04-90.68C137.52-13.54,65.03-4.85,25.68,45.22
					S-4.98,167.78,45.09,207.13c41.82,32.86,100.68,32.86,142.5,0C159.76,185.29,143.52,151.86,143.55,116.49z"/>
				<path class="st8" d="M374.16,116.49c0,63.68-51.63,115.31-115.31,115.3c-25.85,0-50.94-8.69-71.26-24.66
					C237.66,167.78,246.35,95.29,207,45.22c-5.67-7.22-12.19-13.74-19.41-19.41C237.65-13.55,310.14-4.87,349.5,45.19
					c15.97,20.32,24.66,45.42,24.66,71.26V116.49z"/>
				<path class="st8" d="M363.14,187.91v-3.72h1.51v-0.77h-3.81v0.77h1.63v3.72L363.14,187.91z M370.54,187.91v-4.48h-1.15
					l-1.35,3.2l-1.35-3.2h-1.02v4.48h0.83v-3.36l1.25,2.91h0.86l1.25-2.91v3.4L370.54,187.91z"/>
			</g>
		</g>
	</g>
</g>
<g id="Layer_2">
</g>
</svg>
