<?xml version="1.0" encoding="utf-8"?>
<!-- Generator: Adobe Illustrator 21.0.2, SVG Export Plug-In . SVG Version: 6.00 Build 0)  -->
<svg version="1.1" id="Layer_1" xmlns="http://www.w3.org/2000/svg" xmlns:xlink="http://www.w3.org/1999/xlink" x="0px" y="0px"
	 viewBox="0 0 88.7 43" style="enable-background:new 0 0 88.7 43;" xml:space="preserve">
<style type="text/css">
	.st0{clip-path:url(#XMLID_3_);}
	.st1{clip-path:url(#XMLID_5_);}
	.st2{clip-path:url(#XMLID_6_);}
	.st3{fill:#263C7F;}
	.st4{fill:#179BD7;}
	.st5{fill:#253064;}
	.st6{clip-path:url(#XMLID_10_);}
	.st7{clip-path:url(#XMLID_12_);}
</style>
<g>
	<g id="XMLID_94_">
		<g id="XMLID_95_">
			<defs>
				<rect id="XMLID_96_" y="9.5" width="89" height="23.7"/>
			</defs>
			<clipPath id="XMLID_2_">
				<use xlink:href="#XMLID_96_"  style="overflow:visible;"/>
			</clipPath>
		</g>
	</g>
	<g id="XMLID_89_">
		<g id="XMLID_90_">
			<defs>
				<rect id="XMLID_91_" y="9.5" width="89" height="23.7"/>
			</defs>
			<clipPath id="XMLID_3_">
				<use xlink:href="#XMLID_91_"  style="overflow:visible;"/>
			</clipPath>
			<g id="XMLID_92_" class="st0">
				<defs>
					<rect id="XMLID_93_" y="9.5" width="89" height="23.7"/>
				</defs>
				<clipPath id="XMLID_4_">
					<use xlink:href="#XMLID_93_"  style="overflow:visible;"/>
				</clipPath>
			</g>
		</g>
	</g>
	<g id="XMLID_71_">
		<g id="XMLID_74_">
			<defs>
				<rect id="XMLID_77_" y="9.5" width="89" height="23.7"/>
			</defs>
			<clipPath id="XMLID_5_">
				<use xlink:href="#XMLID_77_"  style="overflow:visible;"/>
			</clipPath>
			<g id="XMLID_79_" class="st1">
				<defs>
					<rect id="XMLID_81_" y="9.5" width="89" height="23.7"/>
				</defs>
				<clipPath id="XMLID_6_">
					<use xlink:href="#XMLID_81_"  style="overflow:visible;"/>
				</clipPath>
				<g id="XMLID_84_" class="st2">
					<defs>
						<rect id="XMLID_86_" y="9.5" width="89" height="23.7"/>
					</defs>
					<clipPath id="XMLID_7_">
						<use xlink:href="#XMLID_86_"  style="overflow:visible;"/>
					</clipPath>
				</g>
			</g>
		</g>
	</g>
	<g id="XMLID_68_">
		<g id="XMLID_69_">
			<defs>
				<rect id="XMLID_70_" y="9.5" width="89" height="23.7"/>
			</defs>
			<clipPath id="XMLID_8_">
				<use xlink:href="#XMLID_70_"  style="overflow:visible;"/>
			</clipPath>
		</g>
	</g>
	<g id="XMLID_22_">
		<g id="XMLID_23_">
			<g id="XMLID_39_">
				<g id="XMLID_40_">
					<path id="XMLID_65_" class="st3" d="M33.7,18.9c-0.3,1.8-1.6,1.8-2.9,1.8h-0.7l0.5-3.3c0-0.2,0.2-0.3,0.4-0.3h0.3
						c0.9,0,1.7,0,2.2,0.5C33.8,17.8,33.8,18.3,33.7,18.9z M33.2,14.3h-4.9c-0.3,0-0.6,0.2-0.7,0.6l-2,12.6c0,0.2,0.2,0.5,0.4,0.5
						h2.3c0.3,0,0.6-0.2,0.7-0.6l0.5-3.4c0.1-0.3,0.3-0.6,0.7-0.6h1.6c3.2,0,5.1-1.6,5.6-4.7c0.2-1.4,0-2.4-0.6-3.2
						C36.1,14.7,34.8,14.3,33.2,14.3z"/>
					<path id="XMLID_62_" class="st3" d="M44.6,23.4c-0.2,1.3-1.3,2.2-2.7,2.2c-0.7,0-1.2-0.2-1.6-0.6c-0.3-0.4-0.5-1-0.4-1.7
						c0.2-1.3,1.3-2.3,2.6-2.3c0.7,0,1.2,0.2,1.6,0.6C44.5,22.2,44.7,22.8,44.6,23.4z M47.9,18.8h-2.4c-0.2,0-0.4,0.1-0.4,0.3
						L45,19.8l-0.2-0.2c-0.5-0.7-1.6-1-2.8-1c-2.6,0-4.8,2-5.3,4.7c-0.2,1.4,0.1,2.7,0.9,3.6c0.7,0.8,1.7,1.2,3,1.2
						c2.1,0,3.3-1.3,3.3-1.3l-0.1,0.7c0,0.2,0.2,0.5,0.4,0.5h2.1c0.3,0,0.6-0.2,0.7-0.6l1.3-8C48.3,19.1,48.1,18.8,47.9,18.8z"/>
					<path id="XMLID_61_" class="st3" d="M60.4,18.8H58c-0.2,0-0.4,0.1-0.6,0.3l-3.3,4.8l-1.4-4.6c-0.1-0.3-0.4-0.5-0.7-0.5h-2.3
						c-0.3,0-0.5,0.3-0.4,0.5l2.6,7.6l-2.4,3.5c-0.2,0.3,0,0.6,0.3,0.6h2.4c0.2,0,0.4-0.1,0.6-0.3l7.9-11.3
						C60.9,19.2,60.7,18.8,60.4,18.8z"/>
					<path id="XMLID_58_" class="st4" d="M68.8,18.9c-0.3,1.8-1.6,1.8-2.9,1.8h-0.7l0.5-3.3c0-0.2,0.2-0.3,0.4-0.3h0.3
						c0.9,0,1.7,0,2.2,0.5C68.8,17.8,68.9,18.3,68.8,18.9z M68.2,14.3h-4.9c-0.3,0-0.6,0.2-0.7,0.6l-2,12.6c0,0.2,0.2,0.5,0.4,0.5
						h2.5c0.2,0,0.4-0.2,0.5-0.4l0.6-3.6c0.1-0.3,0.3-0.6,0.7-0.6h1.6c3.2,0,5.1-1.6,5.6-4.7c0.2-1.4,0-2.4-0.6-3.2
						C71.1,14.7,69.8,14.3,68.2,14.3z"/>
					<path id="XMLID_53_" class="st4" d="M79.6,23.4c-0.2,1.3-1.3,2.2-2.7,2.2c-0.7,0-1.2-0.2-1.6-0.6c-0.3-0.4-0.5-1-0.4-1.7
						c0.2-1.3,1.3-2.3,2.6-2.3c0.7,0,1.2,0.2,1.6,0.6C79.6,22.2,79.7,22.8,79.6,23.4z M82.9,18.8h-2.4c-0.2,0-0.4,0.1-0.4,0.3
						L80,19.8l-0.2-0.2c-0.5-0.7-1.6-1-2.8-1c-2.6,0-4.8,2-5.2,4.7c-0.2,1.4,0.1,2.7,0.9,3.6c0.7,0.8,1.7,1.2,3,1.2
						c2.1,0,3.3-1.3,3.3-1.3l-0.1,0.7c0,0.2,0.2,0.5,0.4,0.5h2.1c0.3,0,0.6-0.2,0.7-0.6l1.3-8C83.3,19.1,83.1,18.8,82.9,18.8z"/>
					<path id="XMLID_45_" class="st4" d="M85.7,14.6l-2,12.8c0,0.2,0.2,0.5,0.4,0.5h2c0.3,0,0.6-0.2,0.7-0.6l2-12.6
						c0-0.2-0.2-0.5-0.4-0.5h-2.3C85.9,14.3,85.7,14.4,85.7,14.6z"/>
					<path id="XMLID_44_" class="st3" d="M5.2,30.4L5.6,28l-0.8,0h-4l2.8-17.6c0-0.1,0-0.1,0.1-0.1c0,0,0.1-0.1,0.1-0.1h6.7
						c2.2,0,3.8,0.5,4.6,1.4c0.4,0.4,0.6,0.9,0.7,1.4c0.1,0.5,0.1,1.1,0,1.9l0,0.1v0.5l0.4,0.2c0.3,0.2,0.6,0.4,0.8,0.6
						c0.3,0.4,0.5,0.8,0.6,1.4c0.1,0.6,0.1,1.3-0.1,2c-0.2,0.9-0.5,1.7-0.8,2.3c-0.3,0.6-0.8,1.1-1.3,1.4c-0.5,0.4-1.1,0.6-1.8,0.8
						c-0.7,0.2-1.4,0.3-2.2,0.3h-0.5c-0.4,0-0.7,0.1-1,0.4c-0.3,0.2-0.5,0.6-0.5,1l0,0.2l-0.7,4.2l0,0.2c0,0,0,0.1,0,0.1
						c0,0,0,0-0.1,0H5.2z"/>
					<path id="XMLID_43_" class="st4" d="M16.5,15c0,0.1,0,0.3-0.1,0.4c-0.9,4.6-3.9,6.1-7.8,6.1h-2c-0.5,0-0.9,0.3-0.9,0.8l-1,6.4
						l-0.3,1.8c0,0.3,0.2,0.6,0.5,0.6h3.5c0.4,0,0.8-0.3,0.8-0.7l0-0.2L10,26l0-0.2c0.1-0.4,0.4-0.7,0.8-0.7h0.5
						c3.4,0,6.1-1.4,6.8-5.4c0.3-1.7,0.2-3.1-0.7-4C17.2,15.4,16.9,15.2,16.5,15z"/>
					<path id="XMLID_42_" class="st5" d="M15.6,14.6c-0.1,0-0.3-0.1-0.4-0.1c-0.1,0-0.3-0.1-0.4-0.1c-0.5-0.1-1.1-0.1-1.7-0.1H7.7
						c-0.1,0-0.3,0-0.4,0.1c-0.2,0.1-0.4,0.3-0.5,0.6l-1.1,7.1l0,0.2c0.1-0.5,0.5-0.8,0.9-0.8h2c3.9,0,6.9-1.6,7.8-6.1
						c0-0.1,0-0.3,0.1-0.4c-0.2-0.1-0.5-0.2-0.7-0.3C15.8,14.6,15.7,14.6,15.6,14.6z"/>
					<path id="XMLID_41_" class="st3" d="M6.9,15c0-0.3,0.2-0.5,0.5-0.6c0.1-0.1,0.2-0.1,0.4-0.1H13c0.6,0,1.2,0,1.7,0.1
						c0.2,0,0.3,0.1,0.4,0.1c0.1,0,0.3,0.1,0.4,0.1c0.1,0,0.1,0,0.2,0.1c0.3,0.1,0.5,0.2,0.7,0.3c0.3-1.7,0-2.8-0.9-3.9
						c-1-1.1-2.8-1.6-5.1-1.6H3.8c-0.5,0-0.9,0.3-1,0.8L0,28.1c-0.1,0.4,0.2,0.7,0.6,0.7h4.2l1-6.6L6.9,15z"/>
				</g>
			</g>
		</g>
	</g>
	<g id="XMLID_9_">
		<g id="XMLID_11_">
			<defs>
				<polyline id="XMLID_16_" points="89,9.5 89,33.2 0,33.2 0,9.5 				"/>
			</defs>
			<clipPath id="XMLID_10_">
				<use xlink:href="#XMLID_16_"  style="overflow:visible;"/>
			</clipPath>
			<g id="XMLID_17_" class="st6">
				<defs>
					<polyline id="XMLID_18_" points="89,9.5 89,33.2 0,33.2 0,9.5 					"/>
				</defs>
				<clipPath id="XMLID_12_">
					<use xlink:href="#XMLID_18_"  style="overflow:visible;"/>
				</clipPath>
				<g id="XMLID_19_" class="st7">
					<defs>
						<polyline id="XMLID_20_" points="89,9.5 89,33.2 0,33.2 0,9.5 						"/>
					</defs>
					<clipPath id="XMLID_13_">
						<use xlink:href="#XMLID_20_"  style="overflow:visible;"/>
					</clipPath>
				</g>
			</g>
		</g>
	</g>
</g>
</svg>
