<svg xmlns="http://www.w3.org/2000/svg" xmlns:xlink="http://www.w3.org/1999/xlink" width="500" zoomAndPan="magnify" viewBox="0 0 375 187.499995" height="250" preserveAspectRatio="xMidYMid meet" version="1.0"><defs><g/></defs><g fill="#ffffff" fill-opacity="1"><g transform="translate(167.888229, 53.113832)"><g><path d="M 0.078125 -24.394531 L 0.078125 -28.730469 L 12.273438 -28.730469 L 12.273438 -24.394531 L 8.289062 -24.394531 L 8.289062 0 L 4.066406 0 L 4.066406 -24.394531 Z M 0.078125 -24.394531 "/></g></g></g><g fill="#ffffff" fill-opacity="1"><g transform="translate(180.238522, 53.113832)"><g><path d="M 9.070312 -12.507812 L 5.785156 -12.507812 L 5.785156 0 L 1.5625 0 L 1.5625 -28.730469 L 5.785156 -28.730469 L 5.785156 -16.847656 L 9.070312 -16.847656 L 9.070312 -28.730469 L 13.289062 -28.730469 L 13.289062 0 L 9.070312 0 Z M 9.070312 -12.507812 "/></g></g></g><g fill="#ffffff" fill-opacity="1"><g transform="translate(195.090141, 53.113832)"><g><path d="M 1.5625 -28.730469 L 11.21875 -28.730469 L 11.21875 -24.394531 L 5.785156 -24.394531 L 5.785156 -16.847656 L 9.695312 -16.847656 L 9.695312 -12.234375 L 5.785156 -12.234375 L 5.785156 -4.339844 L 11.21875 -4.339844 L 11.21875 0 L 1.5625 0 Z M 1.5625 -28.730469 "/></g></g></g><g fill="#ffffff" fill-opacity="1"><g transform="translate(207.100071, 53.113832)"><g/></g></g><g fill="#ff3131" fill-opacity="1"><g transform="translate(7.441099, 144.370475)"><g><path d="M 31.371094 -14.757812 C 31.273438 -11.824219 30.6875 -9.1875 29.609375 -6.9375 C 28.730469 -4.984375 27.363281 -3.128906 25.410156 -1.660156 C 23.453125 -0.0976562 20.816406 0.78125 17.296875 0.78125 C 13.78125 0.78125 11.042969 -0.0976562 9.089844 -1.660156 C 7.132812 -3.128906 5.863281 -4.984375 4.984375 -6.9375 C 3.910156 -9.1875 3.324219 -11.824219 3.226562 -14.757812 L 3.226562 -57.074219 C 3.324219 -59.90625 3.910156 -62.546875 4.984375 -64.792969 C 5.863281 -66.746094 7.132812 -68.703125 9.089844 -70.167969 C 11.042969 -71.632812 13.78125 -72.609375 17.296875 -72.609375 C 20.816406 -72.609375 23.453125 -71.632812 25.410156 -70.167969 C 27.363281 -68.703125 28.730469 -66.746094 29.609375 -64.792969 C 30.6875 -62.546875 31.273438 -59.90625 31.371094 -57.074219 Z M 20.816406 -57.074219 C 20.816406 -59.027344 20.425781 -60.394531 19.449219 -61.566406 C 18.960938 -62.054688 18.175781 -62.351562 17.296875 -62.351562 C 15.441406 -62.351562 14.5625 -60.980469 14.171875 -59.710938 C 13.878906 -58.929688 13.78125 -58.050781 13.78125 -57.074219 L 13.78125 -14.757812 C 13.78125 -12.703125 14.269531 -11.335938 15.246094 -10.261719 C 15.734375 -9.773438 16.417969 -9.480469 17.296875 -9.480469 C 19.15625 -9.480469 20.035156 -10.652344 20.425781 -12.117188 C 20.71875 -12.800781 20.816406 -13.683594 20.816406 -14.757812 Z M 20.816406 -57.074219 "/></g></g></g><g fill="#ff3131" fill-opacity="1"><g transform="translate(42.033901, 144.370475)"><g><path d="M 22.769531 0 L 17.296875 -30.296875 L 14.464844 -30.296875 L 14.464844 0 L 3.910156 0 L 3.910156 -71.828125 L 14.464844 -71.828125 C 27.070312 -71.828125 32.445312 -64.695312 32.445312 -51.109375 C 32.445312 -43.976562 30.589844 -37.527344 26.582031 -34.789062 L 33.324219 0 Z M 14.464844 -40.066406 C 15.929688 -40.066406 17.882812 -40.261719 19.449219 -41.632812 C 21.011719 -43 22.28125 -45.636719 22.28125 -50.71875 C 22.28125 -55.800781 21.011719 -58.539062 19.449219 -59.90625 C 17.882812 -61.273438 15.929688 -61.371094 14.464844 -61.371094 Z M 14.464844 -40.066406 "/></g></g></g><g fill="#ff3131" fill-opacity="1"><g transform="translate(77.310745, 144.370475)"><g><path d="M 3.910156 -71.828125 L 14.464844 -71.828125 L 14.464844 0 L 3.910156 0 Z M 3.910156 -71.828125 "/></g></g></g><g fill="#ff3131" fill-opacity="1"><g transform="translate(95.682061, 144.370475)"><g><path d="M 20.816406 -46.03125 L 20.816406 -57.074219 C 20.816406 -59.027344 20.425781 -60.394531 19.449219 -61.566406 C 18.960938 -62.054688 18.175781 -62.351562 17.296875 -62.351562 C 15.441406 -62.351562 14.5625 -60.980469 14.171875 -59.710938 C 13.878906 -58.929688 13.78125 -58.050781 13.78125 -57.074219 L 13.78125 -13.878906 C 13.78125 -11.824219 14.269531 -10.457031 15.246094 -9.382812 C 15.734375 -8.894531 16.417969 -8.601562 17.296875 -8.601562 C 19.15625 -8.601562 20.035156 -9.773438 20.425781 -11.238281 C 20.71875 -11.921875 20.816406 -12.800781 20.816406 -13.878906 L 20.816406 -26.875 L 16.613281 -26.875 L 16.613281 -35.769531 L 31.371094 -35.769531 L 31.371094 0 L 25.117188 0 L 23.84375 -3.421875 C 21.890625 -0.976562 19.058594 0.78125 15.636719 0.78125 C 12.214844 0.78125 9.871094 -0.0976562 8.113281 -1.660156 C 6.351562 -3.128906 5.179688 -4.984375 4.398438 -6.9375 C 3.519531 -9.1875 3.128906 -11.824219 3.226562 -14.757812 L 3.226562 -57.074219 C 3.324219 -59.90625 3.910156 -62.546875 4.984375 -64.792969 C 5.863281 -66.746094 7.132812 -68.703125 9.089844 -70.167969 C 11.042969 -71.632812 13.78125 -72.609375 17.296875 -72.609375 C 20.816406 -72.609375 23.453125 -71.632812 25.410156 -70.167969 C 27.363281 -68.703125 28.730469 -66.746094 29.609375 -64.792969 C 30.6875 -62.546875 31.273438 -59.90625 31.371094 -57.074219 L 31.371094 -46.03125 Z M 20.816406 -46.03125 "/></g></g></g><g fill="#ff3131" fill-opacity="1"><g transform="translate(130.861182, 144.370475)"><g><path d="M 0.976562 0 L 11.824219 -71.828125 L 24.726562 -71.828125 L 35.574219 0 L 25.3125 0 L 23.355469 -14.660156 L 13.191406 -14.660156 L 11.238281 0 Z M 18.859375 -48.472656 L 18.566406 -50.328125 L 17.980469 -50.328125 L 17.6875 -48.472656 L 14.660156 -25.800781 L 21.890625 -25.800781 Z M 18.859375 -48.472656 "/></g></g></g><g fill="#ff3131" fill-opacity="1"><g transform="translate(167.408377, 144.370475)"><g><path d="M 21.402344 0 L 14.660156 -45.148438 L 14.269531 -48.179688 L 13.683594 -48.179688 L 13.683594 0 L 3.910156 0 L 3.910156 -71.828125 L 16.808594 -71.828125 L 23.0625 -38.992188 L 23.550781 -35.183594 L 23.746094 -35.183594 L 24.234375 -38.992188 L 30.492188 -71.828125 L 43.390625 -71.828125 L 43.390625 0 L 33.617188 0 L 33.617188 -48.179688 L 33.03125 -48.179688 L 32.640625 -45.148438 L 25.898438 0 Z M 21.402344 0 "/></g></g></g><g fill="#ff3131" fill-opacity="1"><g transform="translate(214.704758, 144.370475)"><g><path d="M 3.910156 -71.828125 L 14.464844 -71.828125 L 14.464844 0 L 3.910156 0 Z M 3.910156 -71.828125 "/></g></g></g><g fill="#000000" fill-opacity="1"><g transform="translate(233.081563, 144.370475)"><g/></g></g><g fill="#ffffff" fill-opacity="1"><g transform="translate(248.135169, 144.370475)"><g><path d="M 19.058594 0 L 10.847656 0 L 1.171875 -71.828125 L 10.945312 -71.828125 L 15.148438 -34.496094 L 15.34375 -32.152344 L 16.125 -32.152344 L 16.417969 -34.496094 L 20.914062 -71.828125 L 28.535156 -71.828125 L 33.03125 -34.496094 L 33.324219 -32.152344 L 34.105469 -32.152344 L 34.300781 -34.496094 L 38.503906 -71.828125 L 48.277344 -71.828125 L 38.601562 0 L 30.394531 0 L 25.507812 -34.007812 L 24.921875 -38.210938 L 24.53125 -38.210938 L 23.941406 -34.007812 Z M 19.058594 0 "/></g></g></g><g fill="#ffffff" fill-opacity="1"><g transform="translate(297.58138, 144.370475)"><g><path d="M 0.976562 0 L 11.824219 -71.828125 L 24.726562 -71.828125 L 35.574219 0 L 25.3125 0 L 23.355469 -14.660156 L 13.191406 -14.660156 L 11.238281 0 Z M 18.859375 -48.472656 L 18.566406 -50.328125 L 17.980469 -50.328125 L 17.6875 -48.472656 L 14.660156 -25.800781 L 21.890625 -25.800781 Z M 18.859375 -48.472656 "/></g></g></g><g fill="#ffffff" fill-opacity="1"><g transform="translate(334.128576, 144.370475)"><g><path d="M 16.320312 -48.863281 L 16.613281 -48.179688 L 16.808594 -48.179688 L 17.101562 -48.863281 L 22.378906 -71.828125 L 32.738281 -71.828125 L 21.988281 -30.589844 L 21.988281 0 L 11.433594 0 L 11.433594 -30.589844 L 0.683594 -71.828125 L 11.042969 -71.828125 Z M 16.320312 -48.863281 "/></g></g></g></svg>