<svg xmlns="http://www.w3.org/2000/svg" xmlns:xlink="http://www.w3.org/1999/xlink" width="500" zoomAndPan="magnify" viewBox="0 0 375 374.999991" height="500" preserveAspectRatio="xMidYMid meet" version="1.0"><defs><g/></defs><g fill="#fffdfd" fill-opacity="1"><g transform="translate(85.581246, 175.249983)"><g><path d="M 41.265625 -5.125 C 41.265625 -2.570312 43.03125 -1.242188 46.5625 -1.140625 C 46.707031 -1.140625 46.78125 -1.0625 46.78125 -0.90625 L 46.78125 -0.234375 C 46.78125 -0.078125 46.707031 0 46.5625 0 L 28.546875 0 C 28.398438 0 28.328125 -0.078125 28.328125 -0.234375 L 28.328125 -0.90625 C 28.328125 -1.0625 28.796875 -1.140625 29.734375 -1.140625 C 30.679688 -1.140625 31.757812 -1.34375 32.96875 -1.75 C 34.8125 -2.351562 35.734375 -3.375 35.734375 -4.8125 L 35.734375 -18.328125 C 35.734375 -18.515625 35.707031 -18.632812 35.65625 -18.6875 C 35.601562 -18.75 35.476562 -18.78125 35.28125 -18.78125 L 12.96875 -18.78125 C 12.78125 -18.78125 12.65625 -18.75 12.59375 -18.6875 C 12.539062 -18.632812 12.515625 -18.515625 12.515625 -18.328125 L 12.515625 -4.53125 C 12.515625 -2.269531 14.1875 -1.140625 17.53125 -1.140625 C 17.675781 -1.140625 17.75 -1.0625 17.75 -0.90625 L 17.75 -0.234375 C 17.75 -0.078125 17.6875 0 17.5625 0 L 1.921875 0 C 1.773438 0 1.703125 -0.078125 1.703125 -0.234375 L 1.703125 -0.90625 C 1.703125 -1.0625 1.890625 -1.140625 2.265625 -1.140625 C 5.421875 -1.140625 7 -2.488281 7 -5.1875 L 7 -35.40625 C 7 -37.613281 5.6875 -38.78125 3.0625 -38.90625 C 2.664062 -38.925781 2.46875 -39.015625 2.46875 -39.171875 L 2.46875 -39.703125 C 2.46875 -39.859375 2.53125 -39.9375 2.65625 -39.9375 L 16.875 -39.9375 C 17.03125 -39.9375 17.109375 -39.859375 17.109375 -39.703125 L 17.109375 -39.171875 C 17.109375 -39.054688 16.925781 -39 16.5625 -39 C 13.863281 -39 12.515625 -37.664062 12.515625 -35 L 12.515625 -21.921875 C 12.515625 -21.734375 12.539062 -21.609375 12.59375 -21.546875 C 12.65625 -21.492188 12.78125 -21.46875 12.96875 -21.46875 L 35.28125 -21.46875 C 35.476562 -21.46875 35.601562 -21.492188 35.65625 -21.546875 C 35.707031 -21.609375 35.734375 -21.734375 35.734375 -21.921875 L 35.734375 -35.453125 C 35.703125 -35.628906 35.679688 -35.785156 35.671875 -35.921875 C 35.660156 -36.066406 35.628906 -36.289062 35.578125 -36.59375 C 35.441406 -37.226562 34.769531 -37.75 33.5625 -38.15625 C 32.351562 -38.5625 30.984375 -38.820312 29.453125 -38.9375 C 29.304688 -38.9375 29.234375 -39.015625 29.234375 -39.171875 L 29.234375 -39.703125 C 29.234375 -39.859375 29.296875 -39.9375 29.421875 -39.9375 L 45.765625 -39.9375 C 45.921875 -39.9375 46 -39.859375 46 -39.703125 L 46 -39.171875 C 46 -39.054688 45.816406 -39 45.453125 -39 C 42.660156 -39 41.265625 -37.664062 41.265625 -35 Z M 41.265625 -5.125 "/></g></g></g><g fill="#fffdfd" fill-opacity="1"><g transform="translate(132.612352, 175.249983)"><g><path d="M 6.546875 -14.921875 C 6.222656 -14.921875 6.0625 -14.234375 6.0625 -12.859375 C 6.0625 -9.929688 6.925781 -7.472656 8.65625 -5.484375 C 10.394531 -3.503906 12.550781 -2.515625 15.125 -2.515625 C 17.707031 -2.515625 20.191406 -3.628906 22.578125 -5.859375 C 22.609375 -5.898438 22.65625 -5.921875 22.71875 -5.921875 L 22.859375 -5.921875 C 22.972656 -5.921875 23.082031 -5.828125 23.1875 -5.640625 C 23.289062 -5.460938 23.390625 -5.347656 23.484375 -5.296875 C 21.285156 -2.628906 18.707031 -0.785156 15.75 0.234375 C 14.726562 0.585938 13.570312 0.765625 12.28125 0.765625 C 11 0.765625 9.695312 0.410156 8.375 -0.296875 C 7.0625 -1.003906 5.929688 -1.9375 4.984375 -3.09375 C 2.984375 -5.488281 1.984375 -8.472656 1.984375 -12.046875 C 1.984375 -15.628906 3.070312 -18.890625 5.25 -21.828125 C 7.4375 -24.773438 10.4375 -26.25 14.25 -26.25 C 16.988281 -26.25 19.222656 -25.023438 20.953125 -22.578125 C 22.691406 -20.140625 23.5625 -17.992188 23.5625 -16.140625 C 23.5625 -15.328125 23.363281 -14.921875 22.96875 -14.921875 Z M 6.859375 -17.640625 C 6.859375 -17.285156 7.023438 -17.109375 7.359375 -17.109375 L 18.046875 -17.109375 C 18.535156 -17.109375 18.78125 -17.398438 18.78125 -17.984375 C 18.78125 -19.335938 18.171875 -20.726562 16.953125 -22.15625 C 15.734375 -23.582031 14.394531 -24.296875 12.9375 -24.296875 C 11.519531 -24.296875 10.226562 -23.65625 9.0625 -22.375 C 7.90625 -21.09375 7.171875 -19.628906 6.859375 -17.984375 Z M 6.859375 -17.640625 "/></g></g></g><g fill="#fffdfd" fill-opacity="1"><g transform="translate(157.498466, 175.249983)"><g><path d="M 19.484375 -4.671875 C 19.484375 -4.179688 19.710938 -3.789062 20.171875 -3.5 C 20.640625 -3.207031 21.175781 -3.0625 21.78125 -3.0625 C 22.382812 -3.0625 22.890625 -3.21875 23.296875 -3.53125 C 23.703125 -3.84375 23.976562 -4 24.125 -4 C 24.28125 -4 24.359375 -3.796875 24.359375 -3.390625 C 24.359375 -2.984375 24.171875 -2.632812 23.796875 -2.34375 C 20.960938 -0.269531 19.046875 0.765625 18.046875 0.765625 C 16.835938 0.765625 15.851562 -0.488281 15.09375 -3 C 15.039062 -3.1875 14.992188 -3.269531 14.953125 -3.25 C 12.609375 -1.5 11.132812 -0.441406 10.53125 -0.078125 C 8.988281 0.804688 7.4375 0.945312 5.875 0.34375 C 4.320312 -0.257812 3.195312 -1.257812 2.5 -2.65625 C 2.15625 -3.375 1.984375 -4.140625 1.984375 -4.953125 C 1.984375 -6.554688 2.578125 -7.832031 3.765625 -8.78125 C 4.953125 -9.726562 7.21875 -10.632812 10.5625 -11.5 C 11.695312 -11.800781 12.707031 -12.1875 13.59375 -12.65625 C 14.476562 -13.132812 14.941406 -13.4375 14.984375 -13.5625 C 15.035156 -13.695312 15.0625 -13.820312 15.0625 -13.9375 L 15.0625 -19.375 C 15.0625 -21.507812 14.234375 -23.007812 12.578125 -23.875 C 12.023438 -24.15625 11.363281 -24.296875 10.59375 -24.296875 C 9.832031 -24.296875 9.0625 -23.992188 8.28125 -23.390625 C 7.5 -22.785156 7.109375 -21.925781 7.109375 -20.8125 L 7.25 -19.71875 C 7.132812 -19.488281 6.453125 -19.109375 5.203125 -18.578125 C 3.960938 -18.046875 3.25 -17.765625 3.0625 -17.734375 C 2.757812 -17.734375 2.609375 -18.09375 2.609375 -18.8125 C 2.609375 -19.539062 2.820312 -20.347656 3.25 -21.234375 C 3.6875 -22.128906 4.300781 -22.941406 5.09375 -23.671875 C 6.945312 -25.390625 9.0625 -26.25 11.4375 -26.25 C 13.820312 -26.25 15.757812 -25.59375 17.25 -24.28125 C 18.738281 -22.96875 19.484375 -21.40625 19.484375 -19.59375 Z M 6.421875 -5.5 C 6.421875 -4.59375 6.769531 -3.800781 7.46875 -3.125 C 8.175781 -2.457031 8.976562 -2.125 9.875 -2.125 C 10.769531 -2.125 11.859375 -2.503906 13.140625 -3.265625 C 14.421875 -4.035156 15.0625 -4.828125 15.0625 -5.640625 L 15.0625 -11.390625 C 15.0625 -11.597656 15.015625 -11.703125 14.921875 -11.703125 C 14.828125 -11.703125 14.765625 -11.691406 14.734375 -11.671875 L 8.15625 -8.609375 C 7.476562 -8.117188 7.019531 -7.703125 6.78125 -7.359375 C 6.539062 -7.023438 6.421875 -6.40625 6.421875 -5.5 Z M 6.421875 -5.5 "/></g></g></g><g fill="#fffdfd" fill-opacity="1"><g transform="translate(181.110258, 175.249983)"><g><path d="M 19.453125 -25.078125 C 20.285156 -24.785156 20.796875 -24.640625 20.984375 -24.640625 C 21.171875 -24.640625 21.285156 -24.644531 21.328125 -24.65625 C 21.378906 -24.664062 21.445312 -24.78125 21.53125 -25 L 21.53125 -39.625 C 21.53125 -40.414062 21.09375 -40.960938 20.21875 -41.265625 C 19.84375 -41.398438 19.4375 -41.507812 19 -41.59375 C 18.570312 -41.675781 18.226562 -41.753906 17.96875 -41.828125 C 17.71875 -41.898438 17.554688 -41.96875 17.484375 -42.03125 C 17.421875 -42.101562 17.390625 -42.25 17.390625 -42.46875 C 17.390625 -42.6875 17.53125 -42.867188 17.8125 -43.015625 L 25.03125 -46.421875 C 25.257812 -46.535156 25.398438 -46.59375 25.453125 -46.59375 C 25.773438 -46.59375 25.9375 -46.363281 25.9375 -45.90625 L 25.9375 -5.578125 C 26.03125 -4.742188 26.265625 -4.144531 26.640625 -3.78125 C 27.023438 -3.425781 27.640625 -3.25 28.484375 -3.25 L 30.140625 -3.375 C 30.242188 -3.375 30.296875 -3.265625 30.296875 -3.046875 C 30.296875 -2.828125 30.15625 -2.648438 29.875 -2.515625 L 22.34375 0.59375 C 22.113281 0.707031 21.921875 0.765625 21.765625 0.765625 C 21.609375 0.765625 21.53125 0.53125 21.53125 0.0625 L 21.53125 -2.515625 C 21.53125 -2.703125 21.476562 -2.796875 21.375 -2.796875 C 21.25 -2.796875 20.46875 -2.375 19.03125 -1.53125 C 14.632812 1.070312 10.925781 1.457031 7.90625 -0.375 C 5.488281 -1.84375 3.851562 -4.171875 3 -7.359375 C 2.601562 -8.847656 2.40625 -10.425781 2.40625 -12.09375 C 2.40625 -13.769531 2.75 -15.429688 3.4375 -17.078125 C 4.125 -18.734375 5.070312 -20.1875 6.28125 -21.4375 C 8.945312 -24.15625 12.160156 -25.515625 15.921875 -25.515625 C 17.441406 -25.515625 18.617188 -25.367188 19.453125 -25.078125 Z M 6.6875 -12.921875 C 6.6875 -10.066406 7.476562 -7.566406 9.0625 -5.421875 C 10.644531 -3.273438 12.851562 -2.203125 15.6875 -2.203125 C 16.9375 -2.203125 18.222656 -2.507812 19.546875 -3.125 C 20.867188 -3.738281 21.53125 -4.207031 21.53125 -4.53125 L 21.53125 -19.140625 C 21.53125 -19.503906 21.28125 -19.929688 20.78125 -20.421875 C 19.269531 -22.492188 17.265625 -23.53125 14.765625 -23.53125 C 12.265625 -23.53125 10.289062 -22.476562 8.84375 -20.375 C 7.40625 -18.269531 6.6875 -15.785156 6.6875 -12.921875 Z M 6.6875 -12.921875 "/></g></g></g><g fill="#fffdfd" fill-opacity="1"><g transform="translate(210.527317, 175.249983)"><g><path d="M 1.984375 0 C 1.796875 -0.0390625 1.703125 -0.171875 1.703125 -0.390625 C 1.703125 -0.734375 2.144531 -0.960938 3.03125 -1.078125 C 5.070312 -1.378906 6.09375 -2.457031 6.09375 -4.3125 L 6.09375 -19.28125 C 6.09375 -20.070312 5.65625 -20.617188 4.78125 -20.921875 C 4.40625 -21.054688 4 -21.164062 3.5625 -21.25 C 3.132812 -21.332031 2.789062 -21.410156 2.53125 -21.484375 C 2.28125 -21.566406 2.117188 -21.640625 2.046875 -21.703125 C 1.984375 -21.773438 1.953125 -21.914062 1.953125 -22.125 C 1.953125 -22.34375 2.09375 -22.53125 2.375 -22.6875 L 9.59375 -26.078125 C 9.820312 -26.191406 9.96875 -26.25 10.03125 -26.25 C 10.34375 -26.25 10.5 -26.023438 10.5 -25.578125 L 10.5 -4.3125 C 10.5 -2.457031 11.519531 -1.378906 13.5625 -1.078125 C 14.445312 -0.960938 14.890625 -0.765625 14.890625 -0.484375 C 14.890625 -0.203125 14.796875 -0.0390625 14.609375 0 Z M 7.890625 -34.21875 C 7.109375 -34.21875 6.414062 -34.460938 5.8125 -34.953125 C 5.21875 -35.441406 4.921875 -36.125 4.921875 -37 C 4.921875 -37.875 5.203125 -38.566406 5.765625 -39.078125 C 6.335938 -39.585938 7.015625 -39.84375 7.796875 -39.84375 C 8.585938 -39.84375 9.25 -39.539062 9.78125 -38.9375 C 10.320312 -38.332031 10.59375 -37.679688 10.59375 -36.984375 C 10.59375 -36.285156 10.335938 -35.648438 9.828125 -35.078125 C 9.316406 -34.503906 8.671875 -34.21875 7.890625 -34.21875 Z M 7.890625 -34.21875 "/></g></g></g><g fill="#fffdfd" fill-opacity="1"><g transform="translate(225.388717, 175.249983)"><g><path d="M 22.765625 -8.921875 L 22.71875 -14.890625 C 22.71875 -17.328125 22.507812 -19.035156 22.09375 -20.015625 C 21.675781 -21.003906 21.144531 -21.75 20.5 -22.25 C 19.863281 -22.75 19 -23 17.90625 -23 C 16.820312 -23 14.523438 -22.148438 11.015625 -20.453125 C 10.546875 -20.160156 10.300781 -19.894531 10.28125 -19.65625 L 10.28125 -4.421875 C 10.28125 -2.515625 11.300781 -1.421875 13.34375 -1.140625 C 14.226562 -1.003906 14.671875 -0.789062 14.671875 -0.5 C 14.671875 -0.207031 14.578125 -0.0390625 14.390625 0 L 1.75 0 C 1.5625 -0.0390625 1.46875 -0.171875 1.46875 -0.390625 C 1.46875 -0.753906 1.910156 -1.003906 2.796875 -1.140625 C 4.835938 -1.421875 5.859375 -2.515625 5.859375 -4.421875 L 5.859375 -20.671875 C 5.859375 -21.460938 5.425781 -22.007812 4.5625 -22.3125 C 4.1875 -22.445312 3.78125 -22.554688 3.34375 -22.640625 C 2.90625 -22.722656 2.554688 -22.800781 2.296875 -22.875 C 2.046875 -22.957031 1.890625 -23.03125 1.828125 -23.09375 C 1.765625 -23.15625 1.734375 -23.296875 1.734375 -23.515625 C 1.734375 -23.734375 1.875 -23.921875 2.15625 -24.078125 L 9.375 -27.46875 C 9.601562 -27.582031 9.742188 -27.640625 9.796875 -27.640625 C 10.117188 -27.640625 10.28125 -27.414062 10.28125 -26.96875 L 10.28125 -22.546875 C 10.332031 -22.359375 10.40625 -22.265625 10.5 -22.265625 C 10.613281 -22.265625 11.019531 -22.429688 11.71875 -22.765625 C 13.34375 -23.578125 14.976562 -24.359375 16.625 -25.109375 C 18.269531 -25.867188 19.628906 -26.25 20.703125 -26.25 C 25.066406 -26.25 27.25 -22.273438 27.25 -14.328125 L 26.984375 -6.0625 L 26.984375 -4.421875 C 26.984375 -2.941406 27.722656 -1.976562 29.203125 -1.53125 C 29.828125 -1.320312 30.425781 -1.175781 31 -1.09375 C 31.570312 -1.007812 31.945312 -0.925781 32.125 -0.84375 C 32.3125 -0.769531 32.40625 -0.617188 32.40625 -0.390625 C 32.40625 -0.171875 32.304688 -0.0390625 32.109375 0 L 18.46875 0 C 18.28125 -0.0390625 18.1875 -0.171875 18.1875 -0.390625 C 18.1875 -0.753906 18.628906 -1.003906 19.515625 -1.140625 C 21.535156 -1.421875 22.546875 -2.585938 22.546875 -4.640625 C 22.691406 -5.585938 22.765625 -7.015625 22.765625 -8.921875 Z M 22.765625 -8.921875 "/></g></g></g><g fill="#fffdfd" fill-opacity="1"><g transform="translate(256.901337, 175.249983)"><g><path d="M 23.1875 -23.53125 C 23.1875 -23.53125 25.71875 -23.644531 30.78125 -23.875 C 31.21875 -23.875 31.5 -23.828125 31.625 -23.734375 C 31.757812 -23.640625 31.898438 -23.3125 32.046875 -22.75 C 32.203125 -22.195312 32.28125 -21.675781 32.28125 -21.1875 C 32.28125 -20.695312 32.234375 -20.410156 32.140625 -20.328125 C 32.046875 -20.253906 31.859375 -20.21875 31.578125 -20.21875 L 25.296875 -20.21875 C 25.398438 -20.007812 25.519531 -19.789062 25.65625 -19.5625 C 25.789062 -19.34375 25.960938 -18.96875 26.171875 -18.4375 C 26.378906 -17.90625 26.484375 -17.085938 26.484375 -15.984375 C 26.484375 -14.878906 26.210938 -13.726562 25.671875 -12.53125 C 25.128906 -11.332031 24.34375 -10.269531 23.3125 -9.34375 C 21.007812 -7.269531 18.023438 -6.234375 14.359375 -6.234375 C 13.398438 -6.234375 12.34375 -6.410156 11.1875 -6.765625 C 10.90625 -6.460938 10.523438 -6.179688 10.046875 -5.921875 C 9.578125 -5.671875 9.117188 -5.414062 8.671875 -5.15625 C 7.535156 -4.507812 6.96875 -3.867188 6.96875 -3.234375 C 6.96875 -1.628906 9.628906 -0.804688 14.953125 -0.765625 C 20.273438 -0.722656 23.769531 -0.546875 25.4375 -0.234375 C 27.113281 0.078125 28.414062 0.691406 29.34375 1.609375 C 30.789062 3.066406 31.515625 4.726562 31.515625 6.59375 C 31.515625 8.195312 30.828125 9.851562 29.453125 11.5625 C 27.054688 14.5625 23.394531 16.5625 18.46875 17.5625 C 16.707031 17.914062 14.847656 18.09375 12.890625 18.09375 C 9.316406 18.09375 6.601562 17.445312 4.75 16.15625 C 2.90625 14.863281 1.984375 13.300781 1.984375 11.46875 C 1.984375 10.46875 2.21875 9.640625 2.6875 8.984375 C 3.164062 8.335938 3.765625 7.722656 4.484375 7.140625 C 5.210938 6.566406 6.007812 5.960938 6.875 5.328125 C 7.75 4.703125 8.582031 3.898438 9.375 2.921875 C 7.5625 2.765625 6.007812 2.1875 4.71875 1.1875 C 3.425781 0.1875 2.78125 -0.789062 2.78125 -1.75 C 2.78125 -2.71875 3.035156 -3.429688 3.546875 -3.890625 C 4.054688 -4.359375 4.675781 -4.753906 5.40625 -5.078125 C 6.144531 -5.410156 6.921875 -5.71875 7.734375 -6 C 8.546875 -6.28125 9.253906 -6.648438 9.859375 -7.109375 C 7.742188 -7.941406 6.109375 -9.085938 4.953125 -10.546875 C 3.804688 -12.015625 3.234375 -13.613281 3.234375 -15.34375 C 3.234375 -18.570312 4.40625 -21.207031 6.75 -23.25 C 9.101562 -25.289062 11.941406 -26.3125 15.265625 -26.3125 C 18.585938 -26.3125 21.226562 -25.382812 23.1875 -23.53125 Z M 7.796875 6 C 7.359375 6.4375 6.992188 6.898438 6.703125 7.390625 C 6.421875 7.878906 6.28125 8.492188 6.28125 9.234375 C 6.28125 9.984375 6.550781 10.769531 7.09375 11.59375 C 7.632812 12.414062 8.367188 13.160156 9.296875 13.828125 C 11.328125 15.335938 13.773438 16.09375 16.640625 16.09375 C 19.515625 16.09375 22.117188 15.253906 24.453125 13.578125 C 26.785156 11.910156 27.953125 10.078125 27.953125 8.078125 C 27.953125 6.085938 26.988281 4.753906 25.0625 4.078125 C 24.15625 3.773438 21.820312 3.585938 18.0625 3.515625 C 14.3125 3.441406 11.878906 3.335938 10.765625 3.203125 C 10.273438 3.765625 9.769531 4.265625 9.25 4.703125 C 8.726562 5.140625 8.242188 5.570312 7.796875 6 Z M 21.828125 -16 C 21.828125 -18.664062 21.160156 -20.832031 19.828125 -22.5 C 18.503906 -24.164062 16.75 -25 14.5625 -25 C 11.726562 -25 9.722656 -23.671875 8.546875 -21.015625 C 8.097656 -19.992188 7.875 -18.820312 7.875 -17.5 C 7.875 -14.800781 8.429688 -12.554688 9.546875 -10.765625 C 10.898438 -8.609375 12.679688 -7.53125 14.890625 -7.53125 C 17.097656 -7.53125 18.804688 -8.273438 20.015625 -9.765625 C 21.222656 -11.265625 21.828125 -13.34375 21.828125 -16 Z M 21.828125 -16 "/></g></g></g><g fill="#fffdfd" fill-opacity="1"><g transform="translate(86.391246, 225.299985)"><g><path d="M 10.4375 0.546875 C 8.738281 0.546875 7.082031 0.125 5.46875 -0.71875 C 3.863281 -1.570312 2.53125 -2.726562 1.46875 -4.1875 L 3.53125 -6.015625 C 4.351562 -4.722656 5.394531 -3.695312 6.65625 -2.9375 C 7.925781 -2.175781 9.300781 -1.796875 10.78125 -1.796875 C 12.382812 -1.796875 13.601562 -2.148438 14.4375 -2.859375 C 15.28125 -3.578125 15.703125 -4.550781 15.703125 -5.78125 C 15.703125 -7.113281 15.253906 -8.132812 14.359375 -8.84375 C 13.460938 -9.5625 12.039062 -10.195312 10.09375 -10.75 C 5.195312 -11.945312 2.75 -14.164062 2.75 -17.40625 C 2.75 -19.425781 3.40625 -20.976562 4.71875 -22.0625 C 6.039062 -23.15625 7.867188 -23.703125 10.203125 -23.703125 C 11.898438 -23.703125 13.421875 -23.382812 14.765625 -22.75 C 16.117188 -22.113281 17.328125 -21.140625 18.390625 -19.828125 L 16.390625 -18.125 C 15.566406 -19.226562 14.664062 -20.046875 13.6875 -20.578125 C 12.71875 -21.117188 11.554688 -21.390625 10.203125 -21.390625 C 8.773438 -21.390625 7.609375 -21.050781 6.703125 -20.375 C 5.796875 -19.707031 5.34375 -18.796875 5.34375 -17.640625 C 5.34375 -16.460938 5.757812 -15.523438 6.59375 -14.828125 C 7.4375 -14.140625 8.851562 -13.5625 10.84375 -13.09375 C 13.195312 -12.457031 15.023438 -11.582031 16.328125 -10.46875 C 17.640625 -9.363281 18.296875 -7.800781 18.296875 -5.78125 C 18.296875 -4.53125 17.976562 -3.425781 17.34375 -2.46875 C 16.707031 -1.519531 15.789062 -0.78125 14.59375 -0.25 C 13.40625 0.28125 12.019531 0.546875 10.4375 0.546875 Z M 10.4375 0.546875 "/></g></g></g><g fill="#fffdfd" fill-opacity="1"><g transform="translate(108.930967, 225.299985)"><g><path d="M 16.109375 -15.90625 L 16.109375 0 L 13.796875 0 L 13.796875 -2.65625 C 13.253906 -1.632812 12.535156 -0.84375 11.640625 -0.28125 C 10.742188 0.269531 9.707031 0.546875 8.53125 0.546875 C 7.425781 0.546875 6.398438 0.320312 5.453125 -0.125 C 4.515625 -0.582031 3.765625 -1.253906 3.203125 -2.140625 C 2.648438 -3.023438 2.375 -4.066406 2.375 -5.265625 L 2.375 -15.90625 L 4.6875 -15.90625 L 4.6875 -6.296875 C 4.6875 -3.140625 6.09375 -1.5625 8.90625 -1.5625 C 10.539062 -1.5625 11.765625 -2.140625 12.578125 -3.296875 C 13.390625 -4.453125 13.796875 -6.003906 13.796875 -7.953125 L 13.796875 -15.90625 Z M 16.109375 -15.90625 "/></g></g></g><g fill="#fffdfd" fill-opacity="1"><g transform="translate(129.906875, 225.299985)"><g><path d="M 10.09375 -16.453125 C 11.613281 -16.453125 12.96875 -16.085938 14.15625 -15.359375 C 15.351562 -14.640625 16.285156 -13.640625 16.953125 -12.359375 C 17.617188 -11.078125 17.953125 -9.617188 17.953125 -7.984375 C 17.953125 -6.335938 17.609375 -4.863281 16.921875 -3.5625 C 16.242188 -2.269531 15.304688 -1.257812 14.109375 -0.53125 C 12.910156 0.1875 11.550781 0.546875 10.03125 0.546875 C 8.894531 0.546875 7.847656 0.289062 6.890625 -0.21875 C 5.941406 -0.726562 5.140625 -1.4375 4.484375 -2.34375 L 4.484375 0 L 2.171875 0 L 2.171875 -24.6875 L 4.484375 -24.6875 L 4.484375 -13.53125 C 5.140625 -14.457031 5.945312 -15.175781 6.90625 -15.6875 C 7.875 -16.195312 8.9375 -16.453125 10.09375 -16.453125 Z M 10.09375 -1.5625 C 11.164062 -1.5625 12.117188 -1.832031 12.953125 -2.375 C 13.796875 -2.925781 14.453125 -3.6875 14.921875 -4.65625 C 15.398438 -5.632812 15.640625 -6.742188 15.640625 -7.984375 C 15.640625 -9.210938 15.398438 -10.304688 14.921875 -11.265625 C 14.453125 -12.234375 13.796875 -12.988281 12.953125 -13.53125 C 12.117188 -14.070312 11.164062 -14.34375 10.09375 -14.34375 C 9.007812 -14.34375 8.039062 -14.070312 7.1875 -13.53125 C 6.34375 -12.988281 5.679688 -12.226562 5.203125 -11.25 C 4.722656 -10.28125 4.484375 -9.179688 4.484375 -7.953125 C 4.484375 -6.734375 4.722656 -5.632812 5.203125 -4.65625 C 5.679688 -3.6875 6.34375 -2.925781 7.1875 -2.375 C 8.039062 -1.832031 9.007812 -1.5625 10.09375 -1.5625 Z M 10.09375 -1.5625 "/></g></g></g><g fill="#fffdfd" fill-opacity="1"><g transform="translate(151.698691, 225.299985)"><g><path d="M 9.71875 -16.453125 C 10.832031 -16.453125 11.859375 -16.222656 12.796875 -15.765625 C 13.742188 -15.316406 14.492188 -14.648438 15.046875 -13.765625 C 15.597656 -12.878906 15.875 -11.835938 15.875 -10.640625 L 15.875 0 L 13.5625 0 L 13.5625 -9.625 C 13.5625 -12.769531 12.15625 -14.34375 9.34375 -14.34375 C 7.71875 -14.34375 6.492188 -13.765625 5.671875 -12.609375 C 4.859375 -11.453125 4.453125 -9.898438 4.453125 -7.953125 L 4.453125 0 L 2.140625 0 L 2.140625 -24.6875 L 4.453125 -24.6875 L 4.453125 -13.265625 C 4.992188 -14.285156 5.710938 -15.070312 6.609375 -15.625 C 7.503906 -16.175781 8.539062 -16.453125 9.71875 -16.453125 Z M 9.71875 -16.453125 "/></g></g></g><g fill="#fffdfd" fill-opacity="1"><g transform="translate(172.57261, 225.299985)"><g><path d="M 9.015625 -16.453125 C 10.441406 -16.453125 11.734375 -16.097656 12.890625 -15.390625 C 14.046875 -14.691406 14.953125 -13.734375 15.609375 -12.515625 C 16.265625 -11.304688 16.59375 -9.957031 16.59375 -8.46875 C 16.59375 -8.03125 16.582031 -7.703125 16.5625 -7.484375 L 3.46875 -7.484375 C 3.5625 -5.847656 4.09375 -4.453125 5.0625 -3.296875 C 6.039062 -2.140625 7.367188 -1.5625 9.046875 -1.5625 C 10.398438 -1.5625 11.523438 -1.816406 12.421875 -2.328125 C 13.316406 -2.835938 14.039062 -3.546875 14.59375 -4.453125 L 16.421875 -3.234375 C 15.671875 -2.054688 14.679688 -1.128906 13.453125 -0.453125 C 12.234375 0.210938 10.785156 0.546875 9.109375 0.546875 C 7.566406 0.546875 6.195312 0.1875 5 -0.53125 C 3.800781 -1.257812 2.859375 -2.269531 2.171875 -3.5625 C 1.492188 -4.863281 1.15625 -6.328125 1.15625 -7.953125 C 1.15625 -9.585938 1.488281 -11.050781 2.15625 -12.34375 C 2.820312 -13.632812 3.75 -14.640625 4.9375 -15.359375 C 6.132812 -16.085938 7.492188 -16.453125 9.015625 -16.453125 Z M 14.28125 -9.390625 C 14.050781 -11.035156 13.492188 -12.269531 12.609375 -13.09375 C 11.722656 -13.925781 10.523438 -14.34375 9.015625 -14.34375 C 7.535156 -14.34375 6.328125 -13.875 5.390625 -12.9375 C 4.453125 -12 3.859375 -10.816406 3.609375 -9.390625 Z M 14.28125 -9.390625 "/></g></g></g><g fill="#fffdfd" fill-opacity="1"><g transform="translate(193.14056, 225.299985)"><g><path d="M 16.9375 -15.90625 L 16.9375 0 L 14.625 0 L 14.625 -2.34375 C 13.96875 -1.4375 13.160156 -0.726562 12.203125 -0.21875 C 11.253906 0.289062 10.210938 0.546875 9.078125 0.546875 C 7.554688 0.546875 6.195312 0.1875 5 -0.53125 C 3.800781 -1.257812 2.859375 -2.269531 2.171875 -3.5625 C 1.492188 -4.863281 1.15625 -6.335938 1.15625 -7.984375 C 1.15625 -9.617188 1.488281 -11.078125 2.15625 -12.359375 C 2.820312 -13.640625 3.75 -14.640625 4.9375 -15.359375 C 6.132812 -16.085938 7.492188 -16.453125 9.015625 -16.453125 C 10.171875 -16.453125 11.226562 -16.195312 12.1875 -15.6875 C 13.15625 -15.175781 13.96875 -14.457031 14.625 -13.53125 L 14.625 -15.90625 Z M 9.015625 -1.5625 C 10.097656 -1.5625 11.0625 -1.832031 11.90625 -2.375 C 12.757812 -2.925781 13.425781 -3.6875 13.90625 -4.65625 C 14.382812 -5.632812 14.625 -6.734375 14.625 -7.953125 C 14.625 -9.179688 14.382812 -10.28125 13.90625 -11.25 C 13.425781 -12.226562 12.757812 -12.988281 11.90625 -13.53125 C 11.0625 -14.070312 10.097656 -14.34375 9.015625 -14.34375 C 7.941406 -14.34375 6.984375 -14.070312 6.140625 -13.53125 C 5.304688 -12.988281 4.648438 -12.234375 4.171875 -11.265625 C 3.703125 -10.304688 3.46875 -9.210938 3.46875 -7.984375 C 3.46875 -6.742188 3.703125 -5.632812 4.171875 -4.65625 C 4.648438 -3.6875 5.304688 -2.925781 6.140625 -2.375 C 6.984375 -1.832031 7.941406 -1.5625 9.015625 -1.5625 Z M 9.015625 -1.5625 "/></g></g></g><g fill="#fffdfd" fill-opacity="1"><g transform="translate(214.932376, 225.299985)"><g><path d="M 16.9375 -24.6875 L 16.9375 0 L 14.625 0 L 14.625 -2.34375 C 13.96875 -1.4375 13.160156 -0.726562 12.203125 -0.21875 C 11.253906 0.289062 10.210938 0.546875 9.078125 0.546875 C 7.554688 0.546875 6.195312 0.1875 5 -0.53125 C 3.800781 -1.257812 2.859375 -2.269531 2.171875 -3.5625 C 1.492188 -4.863281 1.15625 -6.335938 1.15625 -7.984375 C 1.15625 -9.617188 1.488281 -11.078125 2.15625 -12.359375 C 2.820312 -13.640625 3.75 -14.640625 4.9375 -15.359375 C 6.132812 -16.085938 7.492188 -16.453125 9.015625 -16.453125 C 10.171875 -16.453125 11.226562 -16.195312 12.1875 -15.6875 C 13.15625 -15.175781 13.96875 -14.457031 14.625 -13.53125 L 14.625 -24.6875 Z M 9.015625 -1.5625 C 10.097656 -1.5625 11.0625 -1.832031 11.90625 -2.375 C 12.757812 -2.925781 13.425781 -3.6875 13.90625 -4.65625 C 14.382812 -5.632812 14.625 -6.734375 14.625 -7.953125 C 14.625 -9.179688 14.382812 -10.28125 13.90625 -11.25 C 13.425781 -12.226562 12.757812 -12.988281 11.90625 -13.53125 C 11.0625 -14.070312 10.097656 -14.34375 9.015625 -14.34375 C 7.941406 -14.34375 6.984375 -14.070312 6.140625 -13.53125 C 5.304688 -12.988281 4.648438 -12.234375 4.171875 -11.265625 C 3.703125 -10.304688 3.46875 -9.210938 3.46875 -7.984375 C 3.46875 -6.742188 3.703125 -5.632812 4.171875 -4.65625 C 4.648438 -3.6875 5.304688 -2.925781 6.140625 -2.375 C 6.984375 -1.832031 7.941406 -1.5625 9.015625 -1.5625 Z M 9.015625 -1.5625 "/></g></g></g><g fill="#fffdfd" fill-opacity="1"><g transform="translate(236.724191, 225.299985)"><g><path d="M 3.40625 0 L 3.40625 -15.90625 L 5.71875 -15.90625 L 5.71875 0 Z M 4.5625 -19 C 4.039062 -19 3.601562 -19.179688 3.25 -19.546875 C 2.894531 -19.910156 2.71875 -20.351562 2.71875 -20.875 C 2.71875 -21.375 2.894531 -21.796875 3.25 -22.140625 C 3.601562 -22.492188 4.039062 -22.671875 4.5625 -22.671875 C 5.0625 -22.671875 5.488281 -22.492188 5.84375 -22.140625 C 6.207031 -21.796875 6.390625 -21.363281 6.390625 -20.84375 C 6.390625 -20.34375 6.207031 -19.910156 5.84375 -19.546875 C 5.488281 -19.179688 5.0625 -19 4.5625 -19 Z M 4.5625 -19 "/></g></g></g><g fill="#fffdfd" fill-opacity="1"><g transform="translate(248.55515, 225.299985)"><g><path d="M 9.71875 -16.453125 C 10.832031 -16.453125 11.859375 -16.222656 12.796875 -15.765625 C 13.742188 -15.316406 14.492188 -14.648438 15.046875 -13.765625 C 15.597656 -12.878906 15.875 -11.835938 15.875 -10.640625 L 15.875 0 L 13.5625 0 L 13.5625 -9.625 C 13.5625 -12.769531 12.15625 -14.34375 9.34375 -14.34375 C 7.71875 -14.34375 6.492188 -13.765625 5.671875 -12.609375 C 4.859375 -11.453125 4.453125 -9.898438 4.453125 -7.953125 L 4.453125 0 L 2.140625 0 L 2.140625 -15.90625 L 4.453125 -15.90625 L 4.453125 -13.265625 C 4.992188 -14.285156 5.710938 -15.070312 6.609375 -15.625 C 7.503906 -16.175781 8.539062 -16.453125 9.71875 -16.453125 Z M 9.71875 -16.453125 "/></g></g></g><g fill="#fffdfd" fill-opacity="1"><g transform="translate(269.531058, 225.299985)"><g><path d="M 16.9375 -15.90625 L 16.9375 -0.609375 C 16.9375 0.816406 16.640625 2.085938 16.046875 3.203125 C 15.453125 4.328125 14.625 5.207031 13.5625 5.84375 C 12.5 6.476562 11.285156 6.796875 9.921875 6.796875 L 3.328125 6.796875 L 3.328125 4.6875 L 9.921875 4.6875 C 11.304688 4.6875 12.4375 4.1875 13.3125 3.1875 C 14.1875 2.195312 14.625 0.929688 14.625 -0.609375 L 14.625 -2.34375 C 13.96875 -1.4375 13.160156 -0.726562 12.203125 -0.21875 C 11.253906 0.289062 10.210938 0.546875 9.078125 0.546875 C 7.554688 0.546875 6.195312 0.1875 5 -0.53125 C 3.800781 -1.257812 2.859375 -2.269531 2.171875 -3.5625 C 1.492188 -4.863281 1.15625 -6.335938 1.15625 -7.984375 C 1.15625 -9.617188 1.488281 -11.078125 2.15625 -12.359375 C 2.820312 -13.640625 3.75 -14.640625 4.9375 -15.359375 C 6.132812 -16.085938 7.492188 -16.453125 9.015625 -16.453125 C 10.171875 -16.453125 11.226562 -16.195312 12.1875 -15.6875 C 13.15625 -15.175781 13.96875 -14.457031 14.625 -13.53125 L 14.625 -15.90625 Z M 9.015625 -1.5625 C 10.097656 -1.5625 11.0625 -1.832031 11.90625 -2.375 C 12.757812 -2.925781 13.425781 -3.6875 13.90625 -4.65625 C 14.382812 -5.632812 14.625 -6.734375 14.625 -7.953125 C 14.625 -9.179688 14.382812 -10.28125 13.90625 -11.25 C 13.425781 -12.226562 12.757812 -12.988281 11.90625 -13.53125 C 11.0625 -14.070312 10.097656 -14.34375 9.015625 -14.34375 C 7.941406 -14.34375 6.984375 -14.070312 6.140625 -13.53125 C 5.304688 -12.988281 4.648438 -12.234375 4.171875 -11.265625 C 3.703125 -10.304688 3.46875 -9.210938 3.46875 -7.984375 C 3.46875 -6.742188 3.703125 -5.632812 4.171875 -4.65625 C 4.648438 -3.6875 5.304688 -2.925781 6.140625 -2.375 C 6.984375 -1.832031 7.941406 -1.5625 9.015625 -1.5625 Z M 9.015625 -1.5625 "/></g></g></g><g fill="#fffdfd" fill-opacity="1"><g transform="translate(169.623113, 248.049989)"><g><path d="M 6.5625 -5.875 C 7.1875 -5.707031 7.671875 -5.394531 8.015625 -4.9375 C 8.359375 -4.476562 8.53125 -3.878906 8.53125 -3.140625 C 8.53125 -2.171875 8.234375 -1.40625 7.640625 -0.84375 C 7.054688 -0.28125 6.253906 0 5.234375 0 L 1.265625 0 L 1.265625 -10.90625 L 4.859375 -10.90625 C 5.828125 -10.90625 6.585938 -10.648438 7.140625 -10.140625 C 7.703125 -9.640625 7.984375 -8.96875 7.984375 -8.125 C 7.984375 -7.582031 7.859375 -7.113281 7.609375 -6.71875 C 7.367188 -6.332031 7.019531 -6.050781 6.5625 -5.875 Z M 2.46875 -6.25 L 5.015625 -6.25 C 6.148438 -6.25 6.71875 -6.875 6.71875 -8.125 C 6.71875 -8.6875 6.550781 -9.125 6.21875 -9.4375 C 5.894531 -9.75 5.4375 -9.90625 4.84375 -9.90625 L 2.46875 -9.90625 Z M 5.078125 -0.984375 C 5.753906 -0.984375 6.285156 -1.175781 6.671875 -1.5625 C 7.066406 -1.945312 7.265625 -2.472656 7.265625 -3.140625 C 7.265625 -3.796875 7.066406 -4.3125 6.671875 -4.6875 C 6.285156 -5.070312 5.753906 -5.265625 5.078125 -5.265625 L 2.46875 -5.265625 L 2.46875 -0.984375 Z M 5.078125 -0.984375 "/></g></g></g><g fill="#fffdfd" fill-opacity="1"><g transform="translate(179.444901, 248.049989)"><g><path d="M 4.265625 0.25 C 3.554688 0.25 2.914062 0.0820312 2.34375 -0.25 C 1.78125 -0.59375 1.335938 -1.070312 1.015625 -1.6875 C 0.703125 -2.300781 0.546875 -2.992188 0.546875 -3.765625 C 0.546875 -4.523438 0.703125 -5.207031 1.015625 -5.8125 C 1.328125 -6.414062 1.765625 -6.890625 2.328125 -7.234375 C 2.890625 -7.578125 3.523438 -7.75 4.234375 -7.75 C 4.953125 -7.75 5.59375 -7.578125 6.15625 -7.234375 C 6.726562 -6.890625 7.171875 -6.410156 7.484375 -5.796875 C 7.804688 -5.191406 7.96875 -4.507812 7.96875 -3.75 C 7.96875 -2.976562 7.8125 -2.285156 7.5 -1.671875 C 7.1875 -1.066406 6.75 -0.59375 6.1875 -0.25 C 5.625 0.0820312 4.984375 0.25 4.265625 0.25 Z M 4.234375 -0.734375 C 4.753906 -0.734375 5.210938 -0.859375 5.609375 -1.109375 C 6.003906 -1.367188 6.3125 -1.726562 6.53125 -2.1875 C 6.757812 -2.644531 6.875 -3.164062 6.875 -3.75 C 6.875 -4.320312 6.757812 -4.835938 6.53125 -5.296875 C 6.3125 -5.753906 6.003906 -6.109375 5.609375 -6.359375 C 5.210938 -6.617188 4.753906 -6.75 4.234375 -6.75 C 3.734375 -6.75 3.285156 -6.617188 2.890625 -6.359375 C 2.492188 -6.109375 2.179688 -5.753906 1.953125 -5.296875 C 1.734375 -4.847656 1.625 -4.335938 1.625 -3.765625 C 1.625 -3.171875 1.734375 -2.644531 1.953125 -2.1875 C 2.179688 -1.726562 2.492188 -1.367188 2.890625 -1.109375 C 3.285156 -0.859375 3.734375 -0.734375 4.234375 -0.734375 Z M 4.234375 -0.734375 "/></g></g></g><g fill="#fffdfd" fill-opacity="1"><g transform="translate(188.578864, 248.049989)"><g><path d="M 7.96875 -11.609375 L 7.96875 0 L 6.875 0 L 6.875 -1.109375 C 6.570312 -0.679688 6.195312 -0.347656 5.75 -0.109375 C 5.300781 0.128906 4.804688 0.25 4.265625 0.25 C 3.554688 0.25 2.914062 0.0820312 2.34375 -0.25 C 1.78125 -0.59375 1.335938 -1.066406 1.015625 -1.671875 C 0.703125 -2.285156 0.546875 -2.984375 0.546875 -3.765625 C 0.546875 -4.523438 0.703125 -5.207031 1.015625 -5.8125 C 1.328125 -6.414062 1.765625 -6.890625 2.328125 -7.234375 C 2.890625 -7.578125 3.523438 -7.75 4.234375 -7.75 C 4.785156 -7.75 5.285156 -7.628906 5.734375 -7.390625 C 6.191406 -7.148438 6.570312 -6.8125 6.875 -6.375 L 6.875 -11.609375 Z M 4.234375 -0.734375 C 4.753906 -0.734375 5.210938 -0.859375 5.609375 -1.109375 C 6.003906 -1.367188 6.3125 -1.726562 6.53125 -2.1875 C 6.757812 -2.644531 6.875 -3.164062 6.875 -3.75 C 6.875 -4.320312 6.757812 -4.835938 6.53125 -5.296875 C 6.3125 -5.753906 6.003906 -6.109375 5.609375 -6.359375 C 5.210938 -6.617188 4.753906 -6.75 4.234375 -6.75 C 3.734375 -6.75 3.285156 -6.617188 2.890625 -6.359375 C 2.492188 -6.109375 2.179688 -5.753906 1.953125 -5.296875 C 1.734375 -4.847656 1.625 -4.335938 1.625 -3.765625 C 1.625 -3.171875 1.734375 -2.644531 1.953125 -2.1875 C 2.179688 -1.726562 2.492188 -1.367188 2.890625 -1.109375 C 3.285156 -0.859375 3.734375 -0.734375 4.234375 -0.734375 Z M 4.234375 -0.734375 "/></g></g></g><g fill="#fffdfd" fill-opacity="1"><g transform="translate(198.192712, 248.049989)"><g><path d="M 6.15625 -7.484375 L 7.1875 -7.484375 L 3.140625 3.203125 L 2.046875 3.203125 L 3.234375 0.140625 L 0.15625 -7.484375 L 1.296875 -7.484375 L 3.78125 -1.28125 Z M 6.15625 -7.484375 "/></g></g></g><g fill="#fffdfd" fill-opacity="1"><g transform="translate(48.77344, 202.499987)"><g><path d="M 27.40625 0 L 21.46875 0 L 19.3125 -6.578125 L 8.375 -6.578125 L 6.234375 0 L 0.4375 0 L 10.296875 -28.5625 L 17.546875 -28.5625 Z M 13.578125 -22.59375 L 9.90625 -11.328125 L 17.75 -11.328125 L 14.0625 -22.59375 Z M 13.578125 -22.59375 "/></g></g></g><g fill="#fffdfd" fill-opacity="1"><g transform="translate(76.602757, 202.499987)"><g><path d="M 10.640625 0.40625 C 8.941406 0.40625 7.4375 -0.00390625 6.125 -0.828125 C 4.8125 -1.660156 3.785156 -2.910156 3.046875 -4.578125 C 2.304688 -6.253906 1.9375 -8.316406 1.9375 -10.765625 C 1.9375 -13.222656 2.316406 -15.285156 3.078125 -16.953125 C 3.835938 -18.628906 4.890625 -19.878906 6.234375 -20.703125 C 7.585938 -21.535156 9.148438 -21.953125 10.921875 -21.953125 C 12.265625 -21.953125 13.425781 -21.71875 14.40625 -21.25 C 15.382812 -20.789062 16.210938 -20.078125 16.890625 -19.109375 L 17.3125 -19.203125 L 17.3125 -30.203125 L 22.71875 -30.203125 L 22.71875 0 L 17.3125 0 L 17.3125 -2.796875 L 16.890625 -2.875 C 16.296875 -1.851562 15.476562 -1.050781 14.4375 -0.46875 C 13.394531 0.113281 12.128906 0.40625 10.640625 0.40625 Z M 12.40625 -4.1875 C 13.925781 -4.1875 15.128906 -4.726562 16.015625 -5.8125 C 16.898438 -6.894531 17.34375 -8.546875 17.34375 -10.765625 C 17.34375 -12.972656 16.898438 -14.625 16.015625 -15.71875 C 15.128906 -16.8125 13.925781 -17.359375 12.40625 -17.359375 C 10.8125 -17.359375 9.59375 -16.828125 8.75 -15.765625 C 7.914062 -14.710938 7.5 -13.046875 7.5 -10.765625 C 7.5 -8.492188 7.914062 -6.828125 8.75 -5.765625 C 9.59375 -4.710938 10.8125 -4.1875 12.40625 -4.1875 Z M 12.40625 -4.1875 "/></g></g></g><g fill="#fffdfd" fill-opacity="1"><g transform="translate(102.420546, 202.499987)"><g><path d="M 10.640625 0.40625 C 8.941406 0.40625 7.4375 -0.00390625 6.125 -0.828125 C 4.8125 -1.660156 3.785156 -2.910156 3.046875 -4.578125 C 2.304688 -6.253906 1.9375 -8.316406 1.9375 -10.765625 C 1.9375 -13.222656 2.316406 -15.285156 3.078125 -16.953125 C 3.835938 -18.628906 4.890625 -19.878906 6.234375 -20.703125 C 7.585938 -21.535156 9.148438 -21.953125 10.921875 -21.953125 C 12.265625 -21.953125 13.425781 -21.71875 14.40625 -21.25 C 15.382812 -20.789062 16.210938 -20.078125 16.890625 -19.109375 L 17.3125 -19.203125 L 17.3125 -30.203125 L 22.71875 -30.203125 L 22.71875 0 L 17.3125 0 L 17.3125 -2.796875 L 16.890625 -2.875 C 16.296875 -1.851562 15.476562 -1.050781 14.4375 -0.46875 C 13.394531 0.113281 12.128906 0.40625 10.640625 0.40625 Z M 12.40625 -4.1875 C 13.925781 -4.1875 15.128906 -4.726562 16.015625 -5.8125 C 16.898438 -6.894531 17.34375 -8.546875 17.34375 -10.765625 C 17.34375 -12.972656 16.898438 -14.625 16.015625 -15.71875 C 15.128906 -16.8125 13.925781 -17.359375 12.40625 -17.359375 C 10.8125 -17.359375 9.59375 -16.828125 8.75 -15.765625 C 7.914062 -14.710938 7.5 -13.046875 7.5 -10.765625 C 7.5 -8.492188 7.914062 -6.828125 8.75 -5.765625 C 9.59375 -4.710938 10.8125 -4.1875 12.40625 -4.1875 Z M 12.40625 -4.1875 "/></g></g></g><g fill="#fffdfd" fill-opacity="1"><g transform="translate(128.238335, 202.499987)"><g/></g></g><g fill="#fffdfd" fill-opacity="1"><g transform="translate(137.671013, 202.499987)"><g><path d="M 8.40625 0.40625 C 7.019531 0.40625 5.816406 0.15625 4.796875 -0.34375 C 3.785156 -0.851562 3.003906 -1.597656 2.453125 -2.578125 C 1.910156 -3.566406 1.640625 -4.753906 1.640625 -6.140625 C 1.640625 -7.410156 1.910156 -8.476562 2.453125 -9.34375 C 3.003906 -10.207031 3.851562 -10.914062 5 -11.46875 C 6.144531 -12.03125 7.644531 -12.457031 9.5 -12.75 C 10.78125 -12.957031 11.753906 -13.1875 12.421875 -13.4375 C 13.097656 -13.6875 13.550781 -13.96875 13.78125 -14.28125 C 14.019531 -14.59375 14.140625 -14.988281 14.140625 -15.46875 C 14.140625 -16.15625 13.898438 -16.679688 13.421875 -17.046875 C 12.941406 -17.410156 12.140625 -17.59375 11.015625 -17.59375 C 9.816406 -17.59375 8.675781 -17.328125 7.59375 -16.796875 C 6.519531 -16.265625 5.582031 -15.5625 4.78125 -14.6875 L 4.390625 -14.6875 L 2.125 -18.109375 C 3.21875 -19.316406 4.550781 -20.257812 6.125 -20.9375 C 7.707031 -21.613281 9.429688 -21.953125 11.296875 -21.953125 C 14.140625 -21.953125 16.195312 -21.347656 17.46875 -20.140625 C 18.75 -18.929688 19.390625 -17.210938 19.390625 -14.984375 L 19.390625 -5.625 C 19.390625 -4.664062 19.816406 -4.1875 20.671875 -4.1875 C 20.992188 -4.1875 21.3125 -4.242188 21.625 -4.359375 L 21.890625 -4.28125 L 22.28125 -0.515625 C 21.988281 -0.316406 21.570312 -0.15625 21.03125 -0.03125 C 20.5 0.09375 19.914062 0.15625 19.28125 0.15625 C 17.988281 0.15625 16.976562 -0.0859375 16.25 -0.578125 C 15.53125 -1.078125 15.015625 -1.851562 14.703125 -2.90625 L 14.296875 -2.953125 C 13.242188 -0.710938 11.28125 0.40625 8.40625 0.40625 Z M 10.125 -3.640625 C 11.375 -3.640625 12.367188 -4.054688 13.109375 -4.890625 C 13.859375 -5.734375 14.234375 -6.90625 14.234375 -8.40625 L 14.234375 -10.59375 L 13.875 -10.671875 C 13.539062 -10.410156 13.109375 -10.191406 12.578125 -10.015625 C 12.054688 -9.835938 11.300781 -9.664062 10.3125 -9.5 C 9.144531 -9.300781 8.300781 -8.960938 7.78125 -8.484375 C 7.269531 -8.015625 7.015625 -7.34375 7.015625 -6.46875 C 7.015625 -5.539062 7.285156 -4.835938 7.828125 -4.359375 C 8.378906 -3.878906 9.144531 -3.640625 10.125 -3.640625 Z M 10.125 -3.640625 "/></g></g></g><g fill="#fffdfd" fill-opacity="1"><g transform="translate(160.383642, 202.499987)"><g/></g></g><g fill="#fffdfd" fill-opacity="1"><g transform="translate(169.81632, 202.499987)"><g><path d="M 3.109375 0 L 3.109375 -30.203125 L 8.515625 -30.203125 L 8.515625 -18.734375 L 8.921875 -18.65625 C 9.640625 -19.707031 10.519531 -20.519531 11.5625 -21.09375 C 12.601562 -21.664062 13.859375 -21.953125 15.328125 -21.953125 C 20.085938 -21.953125 22.46875 -19.257812 22.46875 -13.875 L 22.46875 0 L 17.046875 0 L 17.046875 -13.1875 C 17.046875 -14.65625 16.753906 -15.722656 16.171875 -16.390625 C 15.585938 -17.054688 14.675781 -17.390625 13.4375 -17.390625 C 11.925781 -17.390625 10.726562 -16.882812 9.84375 -15.875 C 8.957031 -14.863281 8.515625 -13.289062 8.515625 -11.15625 L 8.515625 0 Z M 3.109375 0 "/></g></g></g><g fill="#fffdfd" fill-opacity="1"><g transform="translate(195.048229, 202.499987)"><g><path d="M 21.296875 -9.546875 L 7.4375 -9.546875 C 7.59375 -7.671875 8.125 -6.304688 9.03125 -5.453125 C 9.945312 -4.609375 11.195312 -4.1875 12.78125 -4.1875 C 14.007812 -4.1875 15.007812 -4.414062 15.78125 -4.875 C 16.550781 -5.332031 17.171875 -6.03125 17.640625 -6.96875 L 18.046875 -6.96875 L 21.640625 -4.671875 C 20.941406 -3.160156 19.878906 -1.9375 18.453125 -1 C 17.035156 -0.0625 15.144531 0.40625 12.78125 0.40625 C 10.550781 0.40625 8.625 -0.015625 7 -0.859375 C 5.382812 -1.703125 4.132812 -2.960938 3.25 -4.640625 C 2.375 -6.316406 1.9375 -8.359375 1.9375 -10.765625 C 1.9375 -13.210938 2.394531 -15.273438 3.3125 -16.953125 C 4.238281 -18.628906 5.488281 -19.878906 7.0625 -20.703125 C 8.644531 -21.535156 10.421875 -21.953125 12.390625 -21.953125 C 15.429688 -21.953125 17.757812 -21.144531 19.375 -19.53125 C 21 -17.914062 21.8125 -15.546875 21.8125 -12.421875 C 21.8125 -11.285156 21.773438 -10.40625 21.703125 -9.78125 Z M 16.640625 -13.046875 C 16.585938 -14.691406 16.207031 -15.882812 15.5 -16.625 C 14.789062 -17.375 13.753906 -17.75 12.390625 -17.75 C 9.648438 -17.75 8.039062 -16.179688 7.5625 -13.046875 Z M 16.640625 -13.046875 "/></g></g></g><g fill="#fffdfd" fill-opacity="1"><g transform="translate(218.463916, 202.499987)"><g><path d="M 8.40625 0.40625 C 7.019531 0.40625 5.816406 0.15625 4.796875 -0.34375 C 3.785156 -0.851562 3.003906 -1.597656 2.453125 -2.578125 C 1.910156 -3.566406 1.640625 -4.753906 1.640625 -6.140625 C 1.640625 -7.410156 1.910156 -8.476562 2.453125 -9.34375 C 3.003906 -10.207031 3.851562 -10.914062 5 -11.46875 C 6.144531 -12.03125 7.644531 -12.457031 9.5 -12.75 C 10.78125 -12.957031 11.753906 -13.1875 12.421875 -13.4375 C 13.097656 -13.6875 13.550781 -13.96875 13.78125 -14.28125 C 14.019531 -14.59375 14.140625 -14.988281 14.140625 -15.46875 C 14.140625 -16.15625 13.898438 -16.679688 13.421875 -17.046875 C 12.941406 -17.410156 12.140625 -17.59375 11.015625 -17.59375 C 9.816406 -17.59375 8.675781 -17.328125 7.59375 -16.796875 C 6.519531 -16.265625 5.582031 -15.5625 4.78125 -14.6875 L 4.390625 -14.6875 L 2.125 -18.109375 C 3.21875 -19.316406 4.550781 -20.257812 6.125 -20.9375 C 7.707031 -21.613281 9.429688 -21.953125 11.296875 -21.953125 C 14.140625 -21.953125 16.195312 -21.347656 17.46875 -20.140625 C 18.75 -18.929688 19.390625 -17.210938 19.390625 -14.984375 L 19.390625 -5.625 C 19.390625 -4.664062 19.816406 -4.1875 20.671875 -4.1875 C 20.992188 -4.1875 21.3125 -4.242188 21.625 -4.359375 L 21.890625 -4.28125 L 22.28125 -0.515625 C 21.988281 -0.316406 21.570312 -0.15625 21.03125 -0.03125 C 20.5 0.09375 19.914062 0.15625 19.28125 0.15625 C 17.988281 0.15625 16.976562 -0.0859375 16.25 -0.578125 C 15.53125 -1.078125 15.015625 -1.851562 14.703125 -2.90625 L 14.296875 -2.953125 C 13.242188 -0.710938 11.28125 0.40625 8.40625 0.40625 Z M 10.125 -3.640625 C 11.375 -3.640625 12.367188 -4.054688 13.109375 -4.890625 C 13.859375 -5.734375 14.234375 -6.90625 14.234375 -8.40625 L 14.234375 -10.59375 L 13.875 -10.671875 C 13.539062 -10.410156 13.109375 -10.191406 12.578125 -10.015625 C 12.054688 -9.835938 11.300781 -9.664062 10.3125 -9.5 C 9.144531 -9.300781 8.300781 -8.960938 7.78125 -8.484375 C 7.269531 -8.015625 7.015625 -7.34375 7.015625 -6.46875 C 7.015625 -5.539062 7.285156 -4.835938 7.828125 -4.359375 C 8.378906 -3.878906 9.144531 -3.640625 10.125 -3.640625 Z M 10.125 -3.640625 "/></g></g></g><g fill="#fffdfd" fill-opacity="1"><g transform="translate(241.176534, 202.499987)"><g><path d="M 10.640625 0.40625 C 8.941406 0.40625 7.4375 -0.00390625 6.125 -0.828125 C 4.8125 -1.660156 3.785156 -2.910156 3.046875 -4.578125 C 2.304688 -6.253906 1.9375 -8.316406 1.9375 -10.765625 C 1.9375 -13.222656 2.316406 -15.285156 3.078125 -16.953125 C 3.835938 -18.628906 4.890625 -19.878906 6.234375 -20.703125 C 7.585938 -21.535156 9.148438 -21.953125 10.921875 -21.953125 C 12.265625 -21.953125 13.425781 -21.71875 14.40625 -21.25 C 15.382812 -20.789062 16.210938 -20.078125 16.890625 -19.109375 L 17.3125 -19.203125 L 17.3125 -30.203125 L 22.71875 -30.203125 L 22.71875 0 L 17.3125 0 L 17.3125 -2.796875 L 16.890625 -2.875 C 16.296875 -1.851562 15.476562 -1.050781 14.4375 -0.46875 C 13.394531 0.113281 12.128906 0.40625 10.640625 0.40625 Z M 12.40625 -4.1875 C 13.925781 -4.1875 15.128906 -4.726562 16.015625 -5.8125 C 16.898438 -6.894531 17.34375 -8.546875 17.34375 -10.765625 C 17.34375 -12.972656 16.898438 -14.625 16.015625 -15.71875 C 15.128906 -16.8125 13.925781 -17.359375 12.40625 -17.359375 C 10.8125 -17.359375 9.59375 -16.828125 8.75 -15.765625 C 7.914062 -14.710938 7.5 -13.046875 7.5 -10.765625 C 7.5 -8.492188 7.914062 -6.828125 8.75 -5.765625 C 9.59375 -4.710938 10.8125 -4.1875 12.40625 -4.1875 Z M 12.40625 -4.1875 "/></g></g></g><g fill="#fffdfd" fill-opacity="1"><g transform="translate(266.994312, 202.499987)"><g><path d="M 5.796875 -24.125 C 4.828125 -24.125 4.035156 -24.421875 3.421875 -25.015625 C 2.804688 -25.609375 2.5 -26.375 2.5 -27.3125 C 2.5 -28.226562 2.804688 -28.984375 3.421875 -29.578125 C 4.035156 -30.171875 4.828125 -30.46875 5.796875 -30.46875 C 6.453125 -30.46875 7.03125 -30.332031 7.53125 -30.0625 C 8.039062 -29.789062 8.4375 -29.414062 8.71875 -28.9375 C 9 -28.457031 9.140625 -27.914062 9.140625 -27.3125 C 9.140625 -26.695312 9 -26.144531 8.71875 -25.65625 C 8.4375 -25.175781 8.039062 -24.800781 7.53125 -24.53125 C 7.03125 -24.257812 6.453125 -24.125 5.796875 -24.125 Z M 3.109375 0 L 3.109375 -21.546875 L 8.515625 -21.546875 L 8.515625 0 Z M 3.109375 0 "/></g></g></g><g fill="#fffdfd" fill-opacity="1"><g transform="translate(278.594729, 202.499987)"><g><path d="M 3.109375 0 L 3.109375 -21.546875 L 8.296875 -21.546875 L 8.296875 -18.375 L 8.71875 -18.28125 C 10.050781 -20.726562 12.222656 -21.953125 15.234375 -21.953125 C 17.722656 -21.953125 19.550781 -21.273438 20.71875 -19.921875 C 21.882812 -18.566406 22.46875 -16.59375 22.46875 -14 L 22.46875 0 L 17.046875 0 L 17.046875 -13.34375 C 17.046875 -14.769531 16.757812 -15.800781 16.1875 -16.4375 C 15.613281 -17.070312 14.695312 -17.390625 13.4375 -17.390625 C 11.882812 -17.390625 10.675781 -16.882812 9.8125 -15.875 C 8.945312 -14.875 8.515625 -13.300781 8.515625 -11.15625 L 8.515625 0 Z M 3.109375 0 "/></g></g></g><g fill="#fffdfd" fill-opacity="1"><g transform="translate(303.826638, 202.499987)"><g><path d="M 11.171875 9.140625 C 7.617188 9.140625 4.992188 8.617188 3.296875 7.578125 C 1.609375 6.535156 0.765625 5.082031 0.765625 3.21875 C 0.765625 2.09375 1.125 1.164062 1.84375 0.4375 C 2.570312 -0.28125 3.613281 -0.765625 4.96875 -1.015625 L 4.96875 -1.421875 C 4.238281 -1.867188 3.710938 -2.363281 3.390625 -2.90625 C 3.066406 -3.445312 2.90625 -4.070312 2.90625 -4.78125 C 2.90625 -6.519531 4.035156 -7.6875 6.296875 -8.28125 L 6.296875 -8.6875 C 5.128906 -9.351562 4.253906 -10.175781 3.671875 -11.15625 C 3.085938 -12.144531 2.796875 -13.335938 2.796875 -14.734375 C 2.796875 -16.160156 3.125 -17.414062 3.78125 -18.5 C 4.4375 -19.59375 5.398438 -20.441406 6.671875 -21.046875 C 7.941406 -21.648438 9.460938 -21.953125 11.234375 -21.953125 C 13.023438 -21.953125 14.457031 -21.640625 15.53125 -21.015625 C 16.195312 -21.984375 16.582031 -23.097656 16.6875 -24.359375 L 17.09375 -24.609375 L 20.984375 -23.65625 C 20.859375 -22.625 20.554688 -21.757812 20.078125 -21.0625 C 19.597656 -20.363281 18.847656 -19.742188 17.828125 -19.203125 L 17.828125 -18.765625 C 19.046875 -17.703125 19.65625 -16.210938 19.65625 -14.296875 C 19.65625 -12.972656 19.320312 -11.78125 18.65625 -10.71875 C 17.988281 -9.664062 17.019531 -8.832031 15.75 -8.21875 C 14.476562 -7.613281 12.972656 -7.3125 11.234375 -7.3125 L 10.40625 -7.328125 C 9.882812 -7.347656 9.519531 -7.359375 9.3125 -7.359375 C 8.820312 -7.359375 8.4375 -7.222656 8.15625 -6.953125 C 7.875 -6.691406 7.734375 -6.351562 7.734375 -5.9375 C 7.734375 -5.476562 7.914062 -5.125 8.28125 -4.875 C 8.644531 -4.625 9.179688 -4.484375 9.890625 -4.453125 L 14.703125 -4.28125 C 19.472656 -4.132812 21.859375 -2.082031 21.859375 1.875 C 21.859375 3.269531 21.503906 4.507812 20.796875 5.59375 C 20.085938 6.6875 18.9375 7.550781 17.34375 8.1875 C 15.757812 8.820312 13.703125 9.140625 11.171875 9.140625 Z M 11.234375 -11.09375 C 12.273438 -11.09375 13.085938 -11.398438 13.671875 -12.015625 C 14.253906 -12.628906 14.546875 -13.5 14.546875 -14.625 C 14.546875 -15.757812 14.253906 -16.628906 13.671875 -17.234375 C 13.085938 -17.835938 12.273438 -18.140625 11.234375 -18.140625 C 10.179688 -18.140625 9.367188 -17.835938 8.796875 -17.234375 C 8.222656 -16.628906 7.9375 -15.757812 7.9375 -14.625 C 7.9375 -13.476562 8.222656 -12.601562 8.796875 -12 C 9.367188 -11.394531 10.179688 -11.09375 11.234375 -11.09375 Z M 11.171875 5.21875 C 13.023438 5.21875 14.367188 4.957031 15.203125 4.4375 C 16.046875 3.914062 16.46875 3.238281 16.46875 2.40625 C 16.46875 1.726562 16.25 1.226562 15.8125 0.90625 C 15.382812 0.59375 14.703125 0.421875 13.765625 0.390625 L 9.515625 0.203125 C 9.367188 0.203125 9.234375 0.191406 9.109375 0.171875 C 8.984375 0.160156 8.863281 0.15625 8.75 0.15625 C 7.84375 0.15625 7.148438 0.347656 6.671875 0.734375 C 6.191406 1.128906 5.953125 1.671875 5.953125 2.359375 C 5.953125 3.273438 6.390625 3.976562 7.265625 4.46875 C 8.140625 4.96875 9.441406 5.21875 11.171875 5.21875 Z M 11.171875 5.21875 "/></g></g></g><g fill="#000000" fill-opacity="1"><g transform="translate(178.116264, 161.920137)"><g><path d="M 0.0390625 -11.667969 L 0.0390625 -13.746094 L 5.871094 -13.746094 L 5.871094 -11.667969 L 3.964844 -11.667969 L 3.964844 0 L 1.945312 0 L 1.945312 -11.667969 Z M 0.0390625 -11.667969 "/></g></g></g><g fill="#000000" fill-opacity="1"><g transform="translate(184.025158, 161.920137)"><g><path d="M 4.339844 -5.984375 L 2.769531 -5.984375 L 2.769531 0 L 0.746094 0 L 0.746094 -13.746094 L 2.769531 -13.746094 L 2.769531 -8.058594 L 4.339844 -8.058594 L 4.339844 -13.746094 L 6.359375 -13.746094 L 6.359375 0 L 4.339844 0 Z M 4.339844 -5.984375 "/></g></g></g><g fill="#000000" fill-opacity="1"><g transform="translate(191.130789, 161.920137)"><g><path d="M 0.746094 -13.746094 L 5.367188 -13.746094 L 5.367188 -11.667969 L 2.769531 -11.667969 L 2.769531 -8.058594 L 4.636719 -8.058594 L 4.636719 -5.851562 L 2.769531 -5.851562 L 2.769531 -2.074219 L 5.367188 -2.074219 L 5.367188 0 L 0.746094 0 Z M 0.746094 -13.746094 "/></g></g></g><g fill="#000000" fill-opacity="1"><g transform="translate(196.88371, 161.920137)"><g/></g></g><g fill="#ff3131" fill-opacity="1"><g transform="translate(80.826916, 214.523781)"><g><path d="M 18.585938 -8.742188 C 18.527344 -7.003906 18.179688 -5.441406 17.542969 -4.109375 C 17.023438 -2.953125 16.210938 -1.851562 15.054688 -0.984375 C 13.894531 -0.0585938 12.332031 0.464844 10.25 0.464844 C 8.164062 0.464844 6.542969 -0.0585938 5.382812 -0.984375 C 4.226562 -1.851562 3.472656 -2.953125 2.953125 -4.109375 C 2.316406 -5.441406 1.96875 -7.003906 1.910156 -8.742188 L 1.910156 -33.8125 C 1.96875 -35.492188 2.316406 -37.054688 2.953125 -38.386719 C 3.472656 -39.546875 4.226562 -40.703125 5.382812 -41.570312 C 6.542969 -42.441406 8.164062 -43.019531 10.25 -43.019531 C 12.332031 -43.019531 13.894531 -42.441406 15.054688 -41.570312 C 16.210938 -40.703125 17.023438 -39.546875 17.542969 -38.386719 C 18.179688 -37.054688 18.527344 -35.492188 18.585938 -33.8125 Z M 12.332031 -33.8125 C 12.332031 -34.972656 12.101562 -35.78125 11.523438 -36.476562 C 11.230469 -36.765625 10.769531 -36.941406 10.25 -36.941406 C 9.148438 -36.941406 8.628906 -36.128906 8.394531 -35.375 C 8.222656 -34.914062 8.164062 -34.390625 8.164062 -33.8125 L 8.164062 -8.742188 C 8.164062 -7.527344 8.453125 -6.714844 9.03125 -6.078125 C 9.320312 -5.789062 9.726562 -5.617188 10.25 -5.617188 C 11.347656 -5.617188 11.871094 -6.3125 12.101562 -7.179688 C 12.273438 -7.585938 12.332031 -8.105469 12.332031 -8.742188 Z M 12.332031 -33.8125 "/></g></g></g><g fill="#ff3131" fill-opacity="1"><g transform="translate(101.320459, 214.523781)"><g><path d="M 13.492188 0 L 10.25 -17.949219 L 8.570312 -17.949219 L 8.570312 0 L 2.316406 0 L 2.316406 -42.554688 L 8.570312 -42.554688 C 16.039062 -42.554688 19.222656 -38.328125 19.222656 -30.28125 C 19.222656 -26.054688 18.121094 -22.234375 15.75 -20.613281 L 19.742188 0 Z M 8.570312 -23.738281 C 9.4375 -23.738281 10.59375 -23.855469 11.523438 -24.664062 C 12.449219 -25.476562 13.199219 -27.039062 13.199219 -30.050781 C 13.199219 -33.058594 12.449219 -34.679688 11.523438 -35.492188 C 10.59375 -36.300781 9.4375 -36.359375 8.570312 -36.359375 Z M 8.570312 -23.738281 "/></g></g></g><g fill="#ff3131" fill-opacity="1"><g transform="translate(122.219243, 214.523781)"><g><path d="M 2.316406 -42.554688 L 8.570312 -42.554688 L 8.570312 0 L 2.316406 0 Z M 2.316406 -42.554688 "/></g></g></g><g fill="#ff3131" fill-opacity="1"><g transform="translate(133.102818, 214.523781)"><g><path d="M 12.332031 -27.269531 L 12.332031 -33.8125 C 12.332031 -34.972656 12.101562 -35.78125 11.523438 -36.476562 C 11.230469 -36.765625 10.769531 -36.941406 10.25 -36.941406 C 9.148438 -36.941406 8.628906 -36.128906 8.394531 -35.375 C 8.222656 -34.914062 8.164062 -34.390625 8.164062 -33.8125 L 8.164062 -8.222656 C 8.164062 -7.003906 8.453125 -6.195312 9.03125 -5.558594 C 9.320312 -5.269531 9.726562 -5.09375 10.25 -5.09375 C 11.347656 -5.09375 11.871094 -5.789062 12.101562 -6.660156 C 12.273438 -7.0625 12.332031 -7.585938 12.332031 -8.222656 L 12.332031 -15.921875 L 9.84375 -15.921875 L 9.84375 -21.191406 L 18.585938 -21.191406 L 18.585938 0 L 14.878906 0 L 14.128906 -2.027344 C 12.96875 -0.578125 11.289062 0.464844 9.265625 0.464844 C 7.238281 0.464844 5.847656 -0.0585938 4.804688 -0.984375 C 3.761719 -1.851562 3.070312 -2.953125 2.605469 -4.109375 C 2.085938 -5.441406 1.851562 -7.003906 1.910156 -8.742188 L 1.910156 -33.8125 C 1.96875 -35.492188 2.316406 -37.054688 2.953125 -38.386719 C 3.472656 -39.546875 4.226562 -40.703125 5.382812 -41.570312 C 6.542969 -42.441406 8.164062 -43.019531 10.25 -43.019531 C 12.332031 -43.019531 13.894531 -42.441406 15.054688 -41.570312 C 16.210938 -40.703125 17.023438 -39.546875 17.542969 -38.386719 C 18.179688 -37.054688 18.527344 -35.492188 18.585938 -33.8125 L 18.585938 -27.269531 Z M 12.332031 -27.269531 "/></g></g></g><g fill="#ff3131" fill-opacity="1"><g transform="translate(153.943715, 214.523781)"><g><path d="M 0.578125 0 L 7.003906 -42.554688 L 14.648438 -42.554688 L 21.074219 0 L 14.996094 0 L 13.835938 -8.683594 L 7.816406 -8.683594 L 6.660156 0 Z M 11.175781 -28.71875 L 11 -29.816406 L 10.652344 -29.816406 L 10.480469 -28.71875 L 8.683594 -15.285156 L 12.96875 -15.285156 Z M 11.175781 -28.71875 "/></g></g></g><g fill="#ff3131" fill-opacity="1"><g transform="translate(175.595094, 214.523781)"><g><path d="M 12.679688 0 L 8.683594 -26.75 L 8.453125 -28.542969 L 8.105469 -28.542969 L 8.105469 0 L 2.316406 0 L 2.316406 -42.554688 L 9.957031 -42.554688 L 13.664062 -23.101562 L 13.953125 -20.84375 L 14.070312 -20.84375 L 14.359375 -23.101562 L 18.066406 -42.554688 L 25.707031 -42.554688 L 25.707031 0 L 19.917969 0 L 19.917969 -28.542969 L 19.570312 -28.542969 L 19.339844 -26.75 L 15.34375 0 Z M 12.679688 0 "/></g></g></g><g fill="#ff3131" fill-opacity="1"><g transform="translate(203.614518, 214.523781)"><g><path d="M 2.316406 -42.554688 L 8.570312 -42.554688 L 8.570312 0 L 2.316406 0 Z M 2.316406 -42.554688 "/></g></g></g><g fill="#000000" fill-opacity="1"><g transform="translate(214.500452, 214.523781)"><g/></g></g><g fill="#000000" fill-opacity="1"><g transform="translate(223.418409, 214.523781)"><g><path d="M 11.289062 0 L 6.425781 0 L 0.695312 -42.554688 L 6.484375 -42.554688 L 8.972656 -20.4375 L 9.089844 -19.046875 L 9.554688 -19.046875 L 9.726562 -20.4375 L 12.390625 -42.554688 L 16.90625 -42.554688 L 19.570312 -20.4375 L 19.742188 -19.046875 L 20.207031 -19.046875 L 20.324219 -20.4375 L 22.8125 -42.554688 L 28.601562 -42.554688 L 22.871094 0 L 18.007812 0 L 15.113281 -20.148438 L 14.765625 -22.636719 L 14.53125 -22.636719 L 14.183594 -20.148438 Z M 11.289062 0 "/></g></g></g><g fill="#000000" fill-opacity="1"><g transform="translate(252.71144, 214.523781)"><g><path d="M 0.578125 0 L 7.003906 -42.554688 L 14.648438 -42.554688 L 21.074219 0 L 14.996094 0 L 13.835938 -8.683594 L 7.816406 -8.683594 L 6.660156 0 Z M 11.175781 -28.71875 L 11 -29.816406 L 10.652344 -29.816406 L 10.480469 -28.71875 L 8.683594 -15.285156 L 12.96875 -15.285156 Z M 11.175781 -28.71875 "/></g></g></g><g fill="#000000" fill-opacity="1"><g transform="translate(274.362819, 214.523781)"><g><path d="M 9.667969 -28.949219 L 9.84375 -28.542969 L 9.957031 -28.542969 L 10.132812 -28.949219 L 13.257812 -42.554688 L 19.394531 -42.554688 L 13.027344 -18.121094 L 13.027344 0 L 6.773438 0 L 6.773438 -18.121094 L 0.40625 -42.554688 L 6.542969 -42.554688 Z M 9.667969 -28.949219 "/></g></g></g></svg>