<?xml version="1.0" encoding="utf-8"?>
<!-- Generator: Adobe Illustrator 21.0.2, SVG Export Plug-In . SVG Version: 6.00 Build 0)  -->
<svg version="1.1" id="Layer_1" xmlns="http://www.w3.org/2000/svg" xmlns:xlink="http://www.w3.org/1999/xlink" x="0px" y="0px"
	 viewBox="0 0 67.6 42.9" style="enable-background:new 0 0 67.6 42.9;" xml:space="preserve">
<style type="text/css">
	.st0{fill:#FFFFFF;}
	.st1{fill:#F7B600;}
	.st2{fill:#1A1F71;}
</style>
<g>
	<rect class="st0" width="67.6" height="42.9"/>
	<rect x="1.1" y="36" class="st1" width="65.3" height="5.9"/>
	<rect x="1.1" y="1.1" class="st2" width="65.3" height="5.9"/>
	<path class="st2" d="M27.3,13.4l-6.7,16.1h-4.4l-3.3-12.8c-0.2-0.8-0.4-1.1-1-1.4c-1-0.5-2.7-1.1-4.1-1.4l0.1-0.5h7.1
		c0.9,0,1.7,0.6,1.9,1.6l1.8,9.3l4.3-11H27.3z M44.5,24.3c0-4.2-5.9-4.5-5.8-6.4c0-0.6,0.6-1.2,1.8-1.3c0.6-0.1,2.2-0.1,4.1,0.7
		l0.7-3.4c-1-0.4-2.3-0.7-3.9-0.7c-4.1,0-7,2.2-7,5.3c0,2.3,2.1,3.6,3.6,4.4c1.6,0.8,2.2,1.3,2.2,2c0,1.1-1.3,1.6-2.5,1.6
		c-2.1,0-3.3-0.6-4.3-1l-0.8,3.5c1,0.4,2.8,0.8,4.6,0.9C41.7,29.8,44.5,27.6,44.5,24.3 M55.4,29.5h3.9l-3.4-16.1h-3.6
		c-0.8,0-1.5,0.5-1.8,1.2l-6.2,14.9h4.4l0.9-2.4h5.3L55.4,29.5z M50.8,23.8l2.2-6l1.3,6H50.8z M33.2,13.4l-3.4,16.1h-4.2l3.4-16.1
		H33.2z"/>
</g>
</svg>
